<svg width="1440" height="310" viewBox="0 0 1440 310" fill="none" xmlns="http://www.w3.org/2000/svg">
<g clip-path="url(#clip0_1541_7123)">
<g opacity="0.1">
<path d="M3601.51 4722.46C3584.96 4666.18 3549.32 4615.55 3509.01 4572.13C3420.02 4476.9 3305.71 4408.74 3213.6 4316.44C3121.49 4224.13 3050.8 4092.29 3083.9 3966.3C3102.01 3897.56 3149.92 3835.63 3149.53 3764.55C3149.14 3688.6 3092.28 3622.98 3026.84 3584.61C2961.22 3546.06 2886.24 3527.75 2815.94 3498.93C2651.2 3430.97 2552.07 3314.9 2450.81 3175.08C2357.34 3045.78 2239.91 2941.4 2073.99 2925.04C2036.22 2921.34 1996.88 2921.92 1962.41 2906.34C1866.6 2862.72 1860.76 2725.82 1787.15 2650.85C1737.88 2600.61 1662.71 2583.08 1612.08 2534.01C1516.27 2441.12 1540.22 2271.5 1449.67 2173.35C1393.97 2112.99 1308.09 2093.9 1234.29 2058.07C1160.48 2022.24 1089.01 1947.26 1111.02 1868.2C1122.7 1826.33 1157.76 1795.95 1190.47 1767.33C1278.3 1690.6 1368.85 1588.56 1349.18 1473.66C1333.8 1383.7 1255.13 1319.43 1213.45 1238.23C1125.24 1066.08 1196.9 811.168 1038.38 700.168C967.694 650.705 864.872 645.447 816.383 574.173C793.599 540.873 787.951 499.199 776.072 460.641C765.557 426.368 749.393 394.236 728.751 365.025C687.856 306.799 599.056 363.857 634.888 425.589L715.509 564.241C739.072 604.552 763.025 645.836 798.272 676.605C866.82 736.584 971.004 751.384 1026.31 823.826C1102.06 922.947 1045.98 1069.19 1085.51 1187.6C1128.35 1315.73 1282.19 1412.13 1254.74 1544.35C1225.33 1685.73 1006.25 1730.33 992.23 1874.24C983.662 1962.65 1061.17 2035.09 1138.48 2078.91C1215.79 2122.72 1304.78 2158.36 1350.74 2234.31C1418.9 2347.06 1371.58 2517.06 1471.48 2603.14C1521.33 2646.18 1592.02 2651.82 1654.14 2673.83C1779.36 2718.23 1873.22 2839.94 1884.32 2972.36C1889.58 3035.46 1877.7 3100.89 1897.37 3161.26C1923.85 3243.24 2000.97 3296.21 2073.41 3342.95C2307.1 3494.26 2540.78 3645.76 2774.46 3797.07C2810.1 3820.25 2849.83 3844.39 2892.09 3839.14C2934.34 3833.88 2970.56 3781.69 2944.86 3748C2930.06 3728.52 2902.99 3724.24 2878.84 3720.15C2753.43 3699.31 2633.67 3645.57 2534.94 3565.72C2424.33 3476.34 2337.28 3353.46 2207.78 3294.65C2154.42 3270.5 2095.61 3258.23 2044.78 3229.02C1993.96 3199.81 1949.95 3146.46 1957.15 3088.23C1968.06 2999.04 2091.72 2965.74 2172.14 3006.05C2252.57 3046.36 2300.47 3129.12 2353.05 3202.15C2490.15 3393.19 2686.44 3541.38 2907.86 3620.83C2968.62 3642.65 3039.31 3666.79 3061.31 3727.55C3088.96 3804.28 3020.42 3878.47 2992.18 3954.81C2939.41 4098.72 3036.19 4255.29 3150.7 4357.33C3265.2 4459.37 3405.22 4539.99 3481.75 4673C3503.37 4710.78 3519.53 4754.01 3513.49 4797.05C3507.45 4840.08 3473.57 4881.37 3430.14 4883.9C3376.2 4887.21 3337.06 4835.6 3308.43 4789.84C3196.07 4610.49 3083.71 4431.14 2971.15 4251.78C2881.76 4109.04 2783.62 3958.51 2629.77 3889.77C2563.56 3860.17 2488.79 3846.93 2431.14 3802.72C2363.76 3750.92 2319.56 3657.64 2235.24 3647.12C2159.68 3637.58 2085.87 3702.43 2012.65 3681.79C1957.15 3666.01 1926.58 3607.79 1904.18 3554.62C1792.99 3291.73 1714.9 3000.79 1509.65 2802.35C1472.26 2766.13 1427.66 2732.25 1375.67 2728.16C1323.67 2724.07 1265.84 2761.85 1266.42 2813.84C1266.61 2840.72 1281.8 2865.26 1297.97 2886.68C1298.36 2887.26 1298.94 2887.84 1299.33 2888.43C1326.79 2924.26 1381.51 2885.7 1357.17 2847.73C1346.65 2831.18 1362.23 2810.53 1380.93 2815.99C1418.12 2826.7 1451.42 2860.19 1476.93 2892.13C1642.26 3099.52 1762.22 3343.14 1825.71 3600.58C1845.18 3679.45 1873.22 3774.87 1952.28 3793.57C2006.03 3806.42 2061.34 3775.85 2116.45 3779.16C2192.4 3783.83 2248.09 3848.68 2310.8 3891.91C2432.51 3975.65 2597.25 3982.27 2712.15 4075.16C2792.77 4140.39 2837.56 4238.74 2887.8 4329.29C2981.28 4497.54 3102.4 4648.66 3222.94 4798.8C3296.36 4890.33 3405.02 4992.17 3513.69 4948.36C3582.43 4920.71 3618.26 4838.92 3610.47 4765.3C3608.52 4751.09 3605.6 4736.48 3601.51 4722.46Z" fill="#80B7D4"/>
<path d="M3334.14 1000.26C3342.51 907.762 3261.7 827.919 3176.21 789.751C3089.16 750.998 2991.4 738.34 2908.05 691.993C2792.96 628.119 2718.38 507.577 2604.85 440.977C2540.39 403.198 2465.22 384.113 2405.05 339.713C2288.79 254.029 2250.62 92.2027 2137.67 2.03946C2067.57 -53.8501 1967.86 -84.2293 1934.56 -167.577C1926.97 -186.466 1924.63 -210.613 1939.24 -224.829C1948.78 -234.177 1962.99 -236.514 1976.24 -237.682C2117.42 -250.729 2256.27 -182.377 2361.04 -86.7609C2465.8 8.85504 2542.92 130.177 2622.18 247.992C2691.89 351.398 2765.89 454.609 2860.93 534.256C2881.57 551.588 2911.17 527.635 2898.51 503.682C2898.32 503.488 2898.32 503.293 2898.12 503.098C2803.09 325.887 2674.17 169.708 2546.04 14.8923C2477.1 -68.4552 2406.41 -153.361 2315.27 -211.393C2213.04 -276.435 2090.74 -303.698 1969.81 -313.435C1929.5 -316.55 1880.23 -313.24 1860.95 -277.603C1852.58 -261.829 1852.38 -242.94 1854.33 -225.219C1865.04 -133.692 1928.91 -57.7447 1997.07 4.18173C2065.23 66.1082 2141.76 121.608 2192 198.724C2230.76 258.313 2252.76 329.003 2300.67 381.582C2394.92 485.377 2558.69 491.414 2647.1 601.051C2753.63 733.083 2910.78 760.346 3062.67 818.572C3086.04 827.53 3109.02 837.267 3131.42 848.367C3174.45 869.788 3216.91 898.804 3236.57 942.815C3256.05 986.63 3243 1047.78 3198.8 1066.67C3169.78 1079.13 3136.09 1070.95 3107.46 1057.9C3048.85 1031.42 3000.94 986.436 2948.75 948.657C2842.82 871.93 2718.38 824.414 2609.52 751.777C2494.43 674.856 2398.82 571.256 2281.97 496.867C2202.71 446.43 2113.91 409.235 2044.59 345.945C1847.9 166.008 1859.2 -174.003 1649.08 -338.166C1575.47 -395.614 1483.55 -423.461 1393.39 -448.193C1361.84 -456.956 1314.91 -455.788 1311.4 -423.072C1310.43 -413.14 1313.74 -403.208 1319.97 -395.419C1376.64 -323.95 1472.06 -303.113 1548.4 -255.403C1775.66 -113.634 1792.79 227.934 2000.58 396.771C2053.94 440.198 2117.03 469.409 2176.62 503.682C2299.11 573.983 2407.97 665.314 2520.33 750.999C2691.7 881.472 2872.61 998.899 3053.52 1116.13C3118.76 1158.58 3187.31 1204.35 3220.8 1274.65C3245.34 1326.25 3248.26 1385.45 3244.75 1442.32C3239.69 1525.27 3221.97 1607.45 3192.56 1685.15C3185.55 1703.65 3178.35 1725.85 3190.03 1741.82C3201.33 1757.4 3225.86 1757.4 3242.03 1746.88C3258 1736.37 3267.34 1718.26 3275.13 1700.73C3327.91 1582.14 3341.34 1446.6 3312.91 1320.02C3299.86 1262.18 3278.25 1203.57 3288.57 1145.34C3297.14 1096.66 3327.32 1053.62 3333.36 1004.55C3333.75 1003.38 3333.94 1001.82 3334.14 1000.26Z" fill="#80B7D4"/>
<path d="M3601.51 2385.62C3584.96 2329.34 3549.32 2278.71 3509.01 2235.28C3420.02 2140.06 3305.71 2071.9 3213.6 1979.59C3121.49 1887.29 3050.8 1755.45 3083.9 1629.46C3102.01 1560.71 3149.92 1498.79 3149.53 1427.71C3149.14 1351.76 3092.28 1286.13 3026.84 1247.77C2961.22 1209.21 2886.24 1190.91 2815.94 1162.09C2651.2 1094.12 2552.07 978.06 2450.81 838.239C2357.34 708.933 2239.91 604.554 2073.99 588.197C2036.22 584.497 1996.88 585.081 1962.41 569.501C1866.6 525.88 1860.76 388.98 1787.15 314.007C1737.88 263.764 1662.71 246.238 1612.08 197.164C1516.27 104.275 1540.22 -65.3413 1449.67 -163.489C1393.97 -223.857 1308.09 -242.941 1234.29 -278.773C1160.48 -314.605 1089.01 -389.578 1111.02 -468.642C1122.7 -510.51 1157.76 -540.889 1190.47 -569.516C1278.3 -646.242 1368.85 -748.284 1349.18 -863.179C1333.8 -953.148 1255.13 -1017.41 1213.45 -1098.62C1125.24 -1270.76 1196.9 -1525.67 1038.38 -1636.67C967.694 -1686.14 864.872 -1691.4 816.383 -1762.67C793.599 -1795.97 787.951 -1837.64 776.072 -1876.2C765.557 -1910.48 749.393 -1942.61 728.751 -1971.82C687.856 -2030.04 599.056 -1972.99 634.888 -1911.25L715.509 -1772.6C739.072 -1732.29 763.025 -1691.01 798.272 -1660.24C866.82 -1600.26 971.004 -1585.46 1026.31 -1513.02C1102.06 -1413.9 1045.98 -1267.65 1085.51 -1149.25C1128.35 -1021.11 1282.19 -924.716 1254.74 -792.49C1225.33 -651.11 1006.25 -606.516 992.23 -462.605C983.662 -374.194 1061.17 -301.752 1138.48 -257.936C1215.79 -214.12 1304.78 -178.484 1350.74 -102.536C1418.9 10.2168 1371.58 180.222 1471.48 266.296C1521.33 309.333 1592.02 314.98 1654.14 336.986C1779.36 381.386 1873.22 503.096 1884.32 635.518C1889.58 698.613 1877.7 764.044 1897.37 824.413C1923.85 906.397 2000.97 959.366 2073.41 1006.1C2307.1 1157.41 2540.78 1308.92 2774.46 1460.23C2810.1 1483.4 2849.83 1507.55 2892.09 1502.29C2934.34 1497.03 2970.56 1444.85 2944.86 1411.16C2930.06 1391.68 2902.99 1387.4 2878.84 1383.31C2753.43 1362.47 2633.67 1308.72 2534.94 1228.88C2424.33 1139.5 2337.28 1016.62 2207.78 957.808C2154.42 933.66 2095.61 921.392 2044.78 892.181C1993.96 862.971 1949.95 809.613 1957.15 751.386C1968.06 662.197 2091.72 628.897 2172.14 669.207C2252.57 709.518 2300.47 792.281 2353.05 865.308C2490.15 1056.34 2686.44 1204.54 2907.86 1283.99C2968.62 1305.8 3039.31 1329.95 3061.31 1390.71C3088.96 1467.43 3020.42 1541.63 2992.18 1617.97C2939.41 1761.88 3036.19 1918.45 3150.7 2020.49C3265.2 2122.53 3405.22 2203.15 3481.75 2336.16C3503.37 2373.94 3519.53 2417.17 3513.49 2460.2C3507.45 2503.24 3473.57 2544.53 3430.14 2547.25C3376.2 2550.56 3337.06 2498.96 3308.43 2453.19C3196.07 2273.84 3083.71 2094.49 2971.15 1915.14C2881.76 1772.39 2783.62 1621.86 2629.77 1553.12C2563.56 1523.52 2488.79 1510.28 2431.14 1466.07C2363.76 1414.27 2319.56 1320.99 2235.24 1310.48C2159.68 1300.93 2085.87 1365.78 2012.65 1345.14C1957.15 1329.37 1926.58 1271.14 1904.18 1217.98C1792.99 955.081 1714.9 664.144 1509.65 465.707C1472.26 429.486 1427.66 395.602 1375.67 391.512C1323.67 387.423 1265.84 425.202 1266.42 477.196C1266.61 504.07 1281.8 528.607 1297.97 550.028C1298.36 550.612 1298.94 551.197 1299.33 551.781C1326.79 587.612 1381.51 549.054 1357.17 511.08C1346.65 494.528 1362.23 473.886 1380.93 479.339C1418.12 490.049 1451.42 523.544 1476.93 555.481C1642.26 762.875 1762.22 1006.49 1825.71 1263.93C1845.18 1342.8 1873.22 1438.22 1952.28 1456.92C2006.03 1469.77 2061.34 1439.2 2116.45 1442.51C2192.4 1447.18 2248.09 1512.03 2310.8 1555.26C2432.51 1639 2597.25 1645.62 2712.15 1738.51C2792.77 1803.75 2837.56 1902.09 2887.8 1992.64C2981.28 2160.89 3102.4 2312.01 3222.94 2462.15C3296.36 2553.68 3405.02 2655.53 3513.69 2611.71C3582.43 2584.06 3618.26 2502.27 3610.47 2428.66C3608.52 2414.25 3605.6 2399.64 3601.51 2385.62Z" fill="#80B7D4"/>
<path d="M4029.16 1168.11C4019.22 1106.19 3989.04 1046.6 3950.09 996.745C3893.81 924.498 3820.59 867.635 3752.24 806.682C3548.35 624.408 3385.35 399.487 3177.18 221.886C2992.18 64.1493 2772.52 -55.4191 2615.95 -241.393C2537.86 -334.283 2474.76 -443.919 2373.31 -510.52C2216.54 -613.146 2010.32 -586.856 1828.43 -541.677C1765.53 -526.099 1699.52 -508.767 1637.2 -526.293C1574.88 -544.014 1521.91 -611.978 1545.67 -672.151C1569.04 -731.351 1647.52 -746.152 1710.23 -734.857C1710.81 -734.662 1711.39 -734.662 1712.17 -734.467C1761.25 -725.315 1792.6 -785.294 1756.57 -819.957C1675.76 -897.657 1605.07 -985.678 1547.04 -1081.49C1531.85 -1106.42 1517.05 -1132.51 1501.66 -1158.6C1470.7 -1210.99 1390.86 -1172.04 1413.06 -1115.57C1455.9 -1005.54 1476.35 -891.425 1446.36 -778.478C1426.3 -703.309 1385.6 -619.572 1426.69 -553.557C1448.69 -518.309 1489 -499.225 1527.95 -484.62C1684.91 -425.42 1856.28 -404.583 2022.78 -424.446C2126.96 -436.909 2237.96 -463.977 2332.61 -418.604C2404.66 -384.135 2451.78 -314.03 2498.33 -249.182C2575.44 -142.077 2661.91 -39.8401 2765.31 42.9232C2814.97 82.6495 2870.08 122.96 2929.86 145.55C2987.51 167.165 3020.42 195.987 3066.18 239.218C3289.15 449.729 3504.53 668.224 3712.12 894.119C3780.67 968.703 3848.24 1043.87 3914.84 1120.01C3936.07 1144.16 3957.1 1168.31 3977.94 1192.46C3997.22 1214.66 4033.83 1197.91 4029.16 1168.89C4029.16 1168.7 4029.16 1168.5 4029.16 1168.11Z" fill="#80B7D4"/>
<path d="M1264.47 2385.62C1247.92 2329.34 1212.28 2278.71 1171.97 2235.28C1082.97 2140.06 968.664 2071.9 876.553 1979.59C784.443 1887.29 713.753 1755.45 746.859 1629.46C764.969 1560.71 812.875 1498.79 812.485 1427.71C812.095 1351.76 755.232 1286.13 689.801 1247.77C624.369 1209.41 549.2 1190.91 478.9 1162.09C314.153 1094.12 215.032 978.06 113.768 838.239C20.2944 708.933 -97.132 604.554 -263.048 588.197C-300.827 584.497 -340.164 585.081 -374.632 569.501C-470.443 525.88 -476.285 388.98 -549.896 314.007C-599.164 263.764 -674.333 246.238 -724.964 197.164C-820.775 104.275 -796.822 -65.3413 -887.375 -163.489C-943.07 -223.857 -1028.95 -242.941 -1102.75 -278.773C-1176.56 -314.605 -1248.03 -389.578 -1226.02 -468.642C-1214.34 -510.51 -1179.29 -540.889 -1146.57 -569.516C-1058.74 -646.242 -968.191 -748.284 -987.859 -863.179C-1003.24 -953.148 -1081.92 -1017.41 -1123.59 -1098.62C-1211.81 -1270.76 -1140.14 -1525.67 -1298.66 -1636.67C-1369.35 -1686.14 -1472.17 -1691.4 -1520.66 -1762.67C-1543.44 -1795.97 -1549.09 -1837.64 -1560.97 -1876.2C-1571.49 -1910.48 -1587.65 -1942.61 -1608.29 -1971.82C-1649.19 -2030.04 -1737.99 -1972.99 -1702.16 -1911.25L-1621.53 -1772.6C-1597.97 -1732.29 -1574.02 -1691.01 -1538.77 -1660.24C-1470.22 -1600.26 -1366.04 -1585.46 -1310.73 -1513.02C-1234.98 -1413.9 -1291.07 -1267.65 -1251.53 -1149.25C-1208.69 -1021.11 -1054.85 -924.716 -1082.31 -792.49C-1111.71 -651.11 -1330.79 -606.516 -1344.81 -462.605C-1353.38 -374.194 -1275.88 -301.752 -1198.56 -257.936C-1121.25 -214.12 -1032.26 -178.484 -986.302 -102.536C-918.144 10.2168 -965.465 180.222 -865.565 266.296C-815.712 309.333 -745.022 314.98 -682.901 336.986C-557.685 381.386 -463.822 503.096 -452.722 635.518C-447.464 698.613 -459.343 764.044 -439.675 824.413C-413.19 906.397 -336.074 959.366 -263.632 1006.1C-29.9476 1157.41 203.737 1308.92 437.421 1460.23C473.058 1483.4 512.785 1507.55 555.042 1502.29C597.301 1497.03 633.521 1444.85 607.816 1411.16C593.016 1391.68 565.948 1387.4 541.8 1383.31C416.39 1362.47 296.626 1308.72 197.895 1228.88C87.2841 1139.5 0.236572 1016.62 -129.264 957.808C-182.622 933.66 -241.432 921.392 -292.259 892.181C-343.085 863.166 -387.095 809.613 -379.89 751.386C-368.985 662.197 -245.327 628.897 -164.9 669.207C-84.474 709.518 -36.5687 792.281 16.0103 865.308C153.105 1056.34 349.4 1204.54 570.816 1283.99C631.574 1305.8 702.264 1329.95 724.269 1390.71C751.922 1467.43 683.374 1541.63 655.137 1617.97C602.364 1761.88 699.148 1918.45 813.653 2020.49C928.159 2122.53 1068.17 2203.15 1144.71 2336.16C1166.32 2373.94 1182.49 2417.17 1176.45 2460.2C1170.41 2503.24 1136.53 2544.53 1093.1 2547.25C1039.16 2550.56 1000.02 2498.96 971.39 2453.19C859.027 2273.84 746.664 2094.49 634.106 1915.14C544.721 1772.39 446.574 1621.86 292.732 1553.12C226.521 1523.52 151.742 1510.28 94.0999 1466.07C26.7208 1414.27 -17.4845 1320.99 -101.806 1310.48C-177.364 1300.93 -251.169 1365.78 -324.39 1345.14C-379.89 1329.37 -410.464 1271.14 -432.859 1217.98C-544.054 955.081 -622.143 664.144 -827.396 465.707C-864.786 429.486 -909.38 395.602 -961.375 391.512C-1013.37 387.423 -1071.21 425.202 -1070.62 477.196C-1070.43 504.07 -1055.24 528.607 -1039.08 550.028C-1038.69 550.612 -1038.1 551.197 -1037.71 551.781C-1010.25 587.612 -955.533 549.054 -979.875 511.08C-990.391 494.528 -974.812 473.886 -956.117 479.339C-918.922 490.049 -885.622 523.544 -860.112 555.481C-694.78 762.875 -574.822 1006.49 -511.338 1263.93C-491.864 1342.8 -463.822 1438.22 -384.759 1456.92C-331.011 1469.77 -275.706 1439.2 -220.595 1442.51C-144.648 1447.18 -88.953 1512.03 -26.2476 1555.26C95.463 1639 260.211 1645.62 375.105 1738.51C455.727 1803.75 500.516 1902.09 550.758 1992.64C644.232 2160.89 765.359 2312.01 885.901 2462.15C959.317 2553.68 1067.98 2655.53 1176.64 2611.71C1245.39 2584.06 1281.22 2502.27 1273.43 2428.66C1271.68 2414.25 1268.75 2399.64 1264.47 2385.62Z" fill="#80B7D4"/>
<path d="M1692.31 1168.11C1682.37 1106.19 1652.19 1046.6 1613.24 996.745C1556.96 924.498 1483.74 867.635 1415.39 806.682C1211.5 624.408 1048.5 399.487 840.331 221.886C655.33 64.1493 435.667 -55.4191 279.098 -241.393C201.009 -334.283 137.914 -443.919 36.4559 -510.52C-120.307 -613.146 -326.534 -586.856 -508.418 -541.677C-571.319 -526.099 -637.334 -508.767 -699.65 -526.293C-761.966 -544.014 -814.935 -611.978 -791.177 -672.151C-767.808 -731.351 -689.329 -746.152 -626.624 -734.857C-626.04 -734.662 -625.456 -734.662 -624.677 -734.467C-575.603 -725.315 -544.25 -785.294 -580.276 -819.957C-661.092 -897.657 -731.782 -985.678 -789.814 -1081.49C-805.003 -1106.42 -819.803 -1132.51 -835.187 -1158.6C-866.15 -1210.99 -945.993 -1172.04 -923.793 -1115.57C-880.951 -1005.54 -860.503 -891.425 -890.493 -778.478C-910.551 -703.309 -951.251 -619.572 -910.161 -553.557C-888.156 -518.309 -847.845 -499.225 -808.898 -484.62C-651.94 -425.42 -480.571 -404.583 -314.071 -424.446C-209.887 -436.909 -98.8864 -463.977 -4.24414 -418.604C67.8086 -384.135 114.935 -314.03 161.477 -249.182C238.593 -142.077 325.056 -39.8401 428.462 42.9232C478.12 82.6495 533.23 122.96 593.015 145.55C650.657 167.165 683.567 195.987 729.331 239.218C952.304 449.729 1167.68 668.224 1375.27 894.119C1443.82 968.703 1511.39 1043.87 1577.99 1120.01C1599.22 1144.16 1620.25 1168.31 1641.09 1192.46C1660.37 1214.66 1696.98 1197.91 1692.31 1168.89C1692.31 1168.7 1692.31 1168.5 1692.31 1168.11Z" fill="#80B7D4"/>
<path d="M1264.47 48.771C1247.92 -7.50781 1212.28 -58.1396 1171.97 -101.566C1082.97 -196.792 968.664 -264.95 876.553 -357.256C784.443 -449.561 713.753 -581.398 746.859 -707.393C764.969 -776.135 812.875 -838.062 812.485 -909.141C812.096 -985.088 755.232 -1050.71 689.801 -1089.08C624.174 -1127.44 549.201 -1145.94 478.901 -1174.76C314.153 -1242.73 215.032 -1358.79 113.768 -1498.61C20.2946 -1627.92 -97.132 -1732.29 -263.048 -1748.65C-300.827 -1752.35 -340.164 -1751.77 -374.632 -1767.35C-470.443 -1810.97 -476.285 -1947.87 -549.896 -2022.84C-599.164 -2073.08 -674.333 -2090.61 -724.964 -2139.68C-820.775 -2232.57 -796.822 -2402.19 -887.375 -2500.34C-943.07 -2560.71 -1028.95 -2579.79 -1102.75 -2615.62C-1176.56 -2651.45 -1248.03 -2726.43 -1226.02 -2805.49C-1214.34 -2847.36 -1179.29 -2877.74 -1146.57 -2906.36C-1058.74 -2983.09 -968.191 -3085.13 -987.859 -3200.03C-1003.24 -3290 -1081.92 -3354.26 -1123.59 -3435.47C-1211.81 -3607.61 -1140.14 -3862.52 -1298.66 -3973.52C-1369.35 -4022.99 -1472.17 -4028.25 -1520.66 -4099.52C-1543.44 -4132.82 -1549.09 -4174.49 -1560.97 -4213.05C-1571.68 -4247.13 -1587.65 -4279.26 -1608.29 -4308.47C-1649.19 -4366.7 -1737.99 -4309.64 -1702.16 -4247.91L-1621.53 -4109.26C-1597.97 -4068.95 -1574.02 -4027.66 -1538.77 -3996.89C-1470.22 -3936.91 -1366.04 -3922.11 -1310.73 -3849.67C-1234.98 -3750.55 -1291.07 -3604.3 -1251.53 -3485.9C-1208.69 -3357.77 -1054.85 -3261.37 -1082.31 -3129.14C-1111.71 -2987.76 -1330.79 -2943.17 -1344.81 -2799.26C-1353.38 -2710.85 -1275.88 -2638.41 -1198.56 -2594.59C-1121.25 -2550.77 -1032.26 -2515.14 -986.302 -2439.19C-918.144 -2326.44 -965.465 -2156.43 -865.565 -2070.36C-815.712 -2027.32 -745.022 -2021.67 -682.901 -1999.67C-557.685 -1955.27 -463.822 -1833.56 -452.722 -1701.14C-447.464 -1638.04 -459.343 -1572.61 -439.675 -1512.24C-413.19 -1430.26 -336.074 -1377.29 -263.632 -1330.55C-29.9475 -1179.24 203.737 -1027.74 437.421 -876.425C473.058 -853.251 512.784 -829.104 555.042 -834.362C597.301 -839.619 633.522 -891.809 607.816 -925.499C593.016 -944.972 565.948 -949.256 541.801 -953.346C416.39 -974.183 296.626 -1027.93 197.895 -1107.77C87.2841 -1197.16 0.23645 -1320.04 -129.264 -1378.85C-182.622 -1402.99 -241.432 -1415.26 -292.259 -1444.47C-343.085 -1473.49 -387.096 -1527.04 -379.89 -1585.27C-368.985 -1674.46 -245.327 -1707.76 -164.901 -1667.45C-84.4741 -1627.14 -36.5687 -1544.37 16.0103 -1471.35C153.105 -1280.31 349.4 -1132.11 570.816 -1052.66C631.574 -1030.85 702.264 -1006.7 724.269 -945.946C751.922 -869.219 683.375 -795.025 655.138 -718.688C602.364 -574.777 699.148 -418.208 813.653 -316.166C928.159 -214.124 1068.17 -133.502 1144.71 -0.49707C1166.32 37.2817 1182.49 80.5127 1176.45 123.55C1170.41 166.587 1136.53 207.871 1093.1 210.598C1039.16 213.908 1000.02 162.303 971.39 116.54C859.027 -62.813 746.664 -242.166 634.106 -421.519C544.721 -564.261 446.574 -714.793 292.732 -783.535C226.521 -813.135 151.742 -826.377 94.0999 -870.583C26.7208 -922.383 -17.4845 -1015.66 -101.806 -1026.18C-177.364 -1035.72 -251.169 -970.872 -324.39 -991.514C-379.89 -1007.29 -410.464 -1065.51 -432.859 -1118.68C-544.053 -1381.57 -622.143 -1672.51 -827.396 -1870.95C-864.786 -1907.17 -909.38 -1941.05 -961.375 -1945.14C-1013.37 -1949.23 -1071.21 -1911.45 -1070.62 -1859.46C-1070.43 -1832.58 -1055.24 -1808.05 -1039.08 -1786.63C-1038.69 -1786.04 -1038.1 -1785.46 -1037.71 -1784.87C-1010.25 -1749.04 -955.533 -1787.6 -979.875 -1825.57C-990.391 -1842.13 -974.812 -1862.77 -956.117 -1857.32C-918.923 -1846.61 -885.622 -1813.11 -860.112 -1781.17C-694.78 -1573.78 -574.822 -1330.16 -511.338 -1072.72C-491.864 -993.851 -463.822 -898.43 -384.759 -879.735C-331.011 -866.883 -275.706 -897.456 -220.595 -894.146C-144.648 -889.472 -88.9529 -824.625 -26.2476 -781.393C95.4631 -697.656 260.211 -691.035 375.105 -598.146C455.727 -532.909 500.516 -434.566 550.758 -344.014C644.232 -175.761 765.359 -24.6445 885.901 125.498C959.317 217.024 1067.98 318.872 1176.64 275.056C1245.39 247.403 1281.22 165.613 1273.43 92.0024C1271.68 77.397 1268.75 62.792 1264.47 48.771Z" fill="#80B7D4"/>
<path d="M997.288 1000.26C1005.66 907.762 924.846 827.92 839.357 789.751C752.309 750.998 654.551 738.341 571.203 691.993C456.114 628.119 381.53 507.577 267.998 440.977C203.54 403.198 128.371 384.113 68.1975 339.713C-48.0606 254.029 -86.2292 92.2028 -199.177 2.03946C-269.282 -53.8501 -368.987 -84.2293 -402.287 -167.577C-409.882 -186.466 -412.219 -210.613 -397.614 -224.829C-388.072 -234.177 -373.856 -236.514 -360.614 -237.682C-219.429 -250.729 -80.5817 -182.377 24.1869 -86.7609C128.955 8.85504 206.071 130.177 285.329 247.993C355.045 351.398 429.045 454.609 524.077 534.256C544.719 551.588 574.319 527.635 561.661 503.682C561.467 503.488 561.467 503.293 561.272 503.098C466.24 325.887 337.324 169.708 209.187 14.8923C140.25 -68.4552 69.5605 -153.361 -21.5764 -211.393C-123.813 -276.435 -246.108 -303.698 -367.04 -313.435C-407.351 -316.55 -456.619 -313.24 -475.898 -277.603C-484.272 -261.829 -484.467 -242.94 -482.519 -225.219C-471.809 -133.692 -407.935 -57.7447 -339.777 4.18173C-271.619 66.1082 -195.087 121.608 -144.845 198.724C-106.092 258.314 -84.087 329.003 -36.1817 381.582C58.071 485.377 221.845 491.414 310.256 601.051C416.777 733.083 573.93 760.346 725.825 818.572C749.193 827.53 772.172 837.267 794.567 848.367C837.604 869.788 880.057 898.804 899.725 942.815C919.199 986.63 906.151 1047.78 861.946 1066.67C832.93 1079.13 799.241 1070.95 770.614 1057.9C711.998 1031.42 664.093 986.436 611.903 948.657C505.966 871.93 381.529 824.414 272.671 751.777C157.582 674.856 61.9658 571.256 -54.8764 496.867C-134.134 446.43 -222.935 409.235 -292.261 345.945C-488.945 166.008 -477.651 -174.003 -687.772 -338.166C-761.383 -395.614 -853.299 -423.461 -943.462 -448.193C-975.009 -456.956 -1021.94 -455.788 -1025.45 -423.072C-1026.42 -413.14 -1023.11 -403.208 -1016.88 -395.419C-960.209 -323.95 -864.788 -303.113 -788.451 -255.403C-561.193 -113.634 -544.056 227.934 -336.272 396.771C-282.914 440.198 -219.819 469.409 -160.229 503.682C-37.7396 573.983 71.1185 665.314 183.482 750.999C354.85 881.472 535.761 998.899 716.672 1116.13C781.909 1158.58 850.457 1204.35 883.951 1274.65C908.488 1326.25 911.409 1385.45 907.904 1442.32C902.841 1525.27 885.12 1607.45 855.714 1685.15C848.704 1703.65 841.499 1725.85 853.183 1741.82C864.478 1757.4 889.014 1757.4 905.177 1746.88C921.146 1736.37 930.493 1718.26 938.283 1700.73C991.057 1582.14 1004.49 1446.6 976.062 1320.02C963.014 1262.18 941.399 1203.57 951.72 1145.34C960.288 1096.66 990.472 1053.62 996.509 1004.55C996.899 1003.38 997.093 1001.82 997.288 1000.26Z" fill="#80B7D4"/>
<path d="M1692.31 1168.11C1682.37 1106.19 1652.19 1046.6 1613.24 996.745C1556.96 924.498 1483.74 867.635 1415.39 806.682C1211.5 624.408 1048.5 399.487 840.331 221.886C655.33 64.1493 435.667 -55.4191 279.098 -241.393C201.009 -334.283 137.914 -443.919 36.4559 -510.52C-120.307 -613.146 -326.534 -586.856 -508.418 -541.677C-571.319 -526.099 -637.334 -508.767 -699.65 -526.293C-761.966 -544.014 -814.935 -611.978 -791.177 -672.151C-767.808 -731.351 -689.329 -746.152 -626.624 -734.857C-626.04 -734.662 -625.456 -734.662 -624.677 -734.467C-575.603 -725.315 -544.25 -785.294 -580.276 -819.957C-661.092 -897.657 -731.782 -985.678 -789.814 -1081.49C-805.003 -1106.42 -819.803 -1132.51 -835.187 -1158.6C-866.15 -1210.99 -945.993 -1172.04 -923.793 -1115.57C-880.951 -1005.54 -860.503 -891.425 -890.493 -778.478C-910.551 -703.309 -951.251 -619.572 -910.161 -553.557C-888.156 -518.309 -847.845 -499.225 -808.898 -484.62C-651.94 -425.42 -480.571 -404.583 -314.071 -424.446C-209.887 -436.909 -98.8864 -463.977 -4.24414 -418.604C67.8086 -384.135 114.935 -314.03 161.477 -249.182C238.593 -142.077 325.056 -39.8401 428.462 42.9232C478.12 82.6495 533.23 122.96 593.015 145.55C650.657 167.165 683.567 195.987 729.331 239.218C952.304 449.729 1167.68 668.224 1375.27 894.119C1443.82 968.703 1511.39 1043.87 1577.99 1120.01C1599.22 1144.16 1620.25 1168.31 1641.09 1192.46C1660.37 1214.66 1696.98 1197.91 1692.31 1168.89C1692.31 1168.7 1692.31 1168.5 1692.31 1168.11Z" fill="#80B7D4"/>
</g>
</g>
<defs>
<clipPath id="clip0_1541_7123">
<rect width="1440" height="310" fill="white"/>
</clipPath>
</defs>
</svg>
