<svg width="100" height="47" viewBox="0 0 100 47" fill="none" xmlns="http://www.w3.org/2000/svg">
<path d="M96.5539 45.9987C96.5539 46.087 96.5167 46.1335 96.4423 46.1428C96.3679 46.1521 96.1819 46.1568 95.8889 46.1568C95.5959 46.1568 95.396 46.1475 95.3216 46.1335C95.2471 46.1196 95.2099 46.0591 95.2099 45.9522C95.2099 45.8405 95.2099 45.6731 95.2192 45.4453C95.2239 45.222 95.2285 45.0546 95.2285 44.9384C95.2285 44.5059 95.2239 44.2036 95.2146 44.0222C95.2006 43.7292 95.0611 43.585 94.7914 43.585C94.6751 43.585 94.5589 43.6316 94.4426 43.7292C94.3263 43.8269 94.2612 43.9338 94.2519 44.0501C94.2426 44.1524 94.238 44.4547 94.238 44.9569C94.238 45.0732 94.238 45.2453 94.2473 45.4825C94.2566 45.715 94.2566 45.8917 94.2566 46.008C94.2566 46.087 94.2194 46.1289 94.1496 46.1289H93.0195C92.9498 46.1289 92.9172 46.0777 92.9172 45.9801C92.9172 45.8638 92.9172 45.6917 92.9265 45.4592C92.9358 45.2267 92.9358 45.0546 92.9358 44.9384C92.9358 44.85 92.9358 44.7105 92.9265 44.5245C92.9219 44.3384 92.9172 44.2036 92.9172 44.1059C92.9172 43.7525 92.7824 43.5804 92.508 43.5804C92.3964 43.5804 92.2801 43.6222 92.1546 43.706C92.015 43.7943 91.9453 43.892 91.9453 43.9943C91.9453 44.2175 91.9453 44.5524 91.9453 44.9942C91.9453 45.436 91.9453 45.7708 91.9453 45.994C91.9453 46.0545 91.936 46.0917 91.922 46.1056C91.9081 46.1196 91.8662 46.1289 91.8058 46.1382C91.6942 46.1475 91.5174 46.1521 91.2756 46.1521C91.1175 46.1521 90.9408 46.1428 90.7408 46.1289C90.6803 46.1242 90.6478 46.1149 90.6338 46.1056C90.6245 46.0963 90.6152 46.0591 90.6152 45.994C90.6152 45.7987 90.6152 45.5057 90.6152 45.1104C90.6152 44.7198 90.6152 44.4268 90.6152 44.2315C90.6152 43.8315 90.5827 43.3758 90.5269 42.8735C90.5222 42.8456 90.5176 42.8224 90.5176 42.8084C90.5176 42.7666 90.5362 42.7386 90.5687 42.7247C90.6245 42.7014 90.7269 42.6875 90.8803 42.6689C91.0663 42.6503 91.1779 42.641 91.2105 42.6363C91.2338 42.6317 91.3361 42.6038 91.5081 42.5573C91.629 42.5247 91.7267 42.5061 91.8011 42.5061C91.8476 42.5061 91.8709 42.5898 91.8755 42.7619C91.8755 42.934 91.8895 43.0177 91.9081 43.0177C91.9313 43.0084 91.9592 42.9898 91.9964 42.9665C92.2197 42.7945 92.3964 42.6782 92.5266 42.6131C92.7219 42.5247 92.9265 42.4782 93.1498 42.4782C93.373 42.4782 93.5823 42.5294 93.7636 42.627C93.9636 42.7387 94.0938 42.9014 94.1543 43.1014C94.2845 42.9247 94.4659 42.7759 94.6984 42.6549C94.9263 42.534 95.1541 42.4736 95.3727 42.4736C95.6982 42.4736 95.968 42.548 96.1726 42.7014C96.4051 42.8689 96.526 43.1107 96.526 43.4269C96.526 43.5571 96.526 43.7525 96.5167 44.0129C96.5074 44.2733 96.5074 44.4686 96.5074 44.5989C96.5074 44.7523 96.5074 44.9849 96.5167 45.2964C96.526 45.608 96.526 45.8405 96.526 45.994L96.5539 45.9987Z" fill="#006FA9"/>
<path d="M88.8568 44.3195C88.8568 44.8822 88.6847 45.3333 88.3359 45.6821C87.9918 46.0309 87.5314 46.203 86.9687 46.203C86.4059 46.203 85.9688 46.0309 85.62 45.6868C85.2666 45.3427 85.0898 44.9008 85.0898 44.3614C85.0898 43.794 85.2573 43.329 85.5967 42.9755C85.9362 42.6221 86.392 42.4454 86.9687 42.4454C87.5453 42.4454 87.9871 42.6174 88.3359 42.9662C88.6847 43.315 88.8568 43.7661 88.8568 44.3195ZM87.6337 44.3195C87.6337 44.1242 87.5732 43.9568 87.4477 43.808C87.3267 43.6592 87.1686 43.5848 86.9733 43.5848C86.778 43.5848 86.6152 43.6592 86.485 43.8126C86.3641 43.9568 86.3083 44.1242 86.3083 44.3195C86.3083 44.5149 86.3687 44.6869 86.485 44.8311C86.6152 44.9846 86.7733 45.059 86.9733 45.059C87.1733 45.059 87.3267 44.9846 87.4523 44.8311C87.5686 44.6869 87.629 44.5195 87.629 44.3195H87.6337Z" fill="#006FA9"/>
<path d="M82.2765 43.7104C82.2765 43.7104 82.1975 43.6918 82.0487 43.6499C81.8998 43.6081 81.7789 43.5895 81.6906 43.5895C81.4674 43.5895 81.2906 43.6546 81.1604 43.7848C81.0302 43.915 80.9604 44.0917 80.9604 44.3103C80.9604 44.5289 81.0302 44.7149 81.1744 44.8405C81.3185 44.9707 81.5046 45.0358 81.7371 45.0358C81.8487 45.0358 81.9696 45.0079 82.1045 44.9521C82.2393 44.8963 82.3044 44.8684 82.2998 44.8684C82.3416 44.8684 82.3975 45.0218 82.4626 45.3334C82.5184 45.6171 82.5509 45.8078 82.5509 45.9008C82.5509 45.9938 82.3975 46.0729 82.0859 46.1426C81.8487 46.1938 81.6534 46.2217 81.5092 46.2217C80.9604 46.2217 80.5093 46.0403 80.1559 45.6776C79.7978 45.3148 79.6211 44.8591 79.6211 44.3196C79.6211 43.7802 79.7978 43.3291 80.1559 42.9617C80.514 42.5943 80.9651 42.4129 81.5092 42.4129C81.8766 42.4129 82.2021 42.492 82.4858 42.6501C82.5509 42.6826 82.5835 42.7152 82.5835 42.7477C82.5835 42.7803 82.5463 42.9245 82.4719 43.1802C82.4021 43.4267 82.3556 43.5802 82.337 43.6267C82.3137 43.6778 82.2951 43.7057 82.2719 43.7057L82.2765 43.7104Z" fill="#006FA9"/>
<path d="M75.9193 45.3285C75.9193 45.5704 75.8356 45.7796 75.6635 45.9517C75.4961 46.1238 75.2868 46.2075 75.0403 46.2075C74.7938 46.2075 74.5892 46.1191 74.4218 45.947C74.2544 45.775 74.166 45.5657 74.166 45.3285C74.166 45.0913 74.2497 44.8821 74.4218 44.71C74.5892 44.5379 74.7985 44.4542 75.0403 44.4542C75.2821 44.4542 75.4914 44.5426 75.6635 44.71C75.8356 44.8821 75.9193 45.0867 75.9193 45.3285Z" fill="#006FA9"/>
<path d="M42.0215 20.886C42.0215 21.0534 41.9053 21.165 41.6774 21.2301C41.403 21.3045 40.5473 21.3417 39.1103 21.3417C37.7942 21.3417 36.9478 21.3045 36.5711 21.2301C36.2596 21.165 36.0596 20.9604 35.9759 20.607C35.6643 19.2816 35.4178 18.5747 35.2457 18.4817C35.0969 18.4166 33.8645 18.384 31.5486 18.384C29.9814 18.384 29.1489 18.4259 29.0513 18.5096C28.8931 18.6584 28.7211 19.1513 28.5258 19.9884C28.349 20.7511 28.1398 21.165 27.8886 21.2301C27.5771 21.3045 26.526 21.3417 24.7402 21.3417C23.3311 21.3417 22.6289 21.2069 22.6289 20.9418C22.6289 20.7 23.6706 17.7655 25.7494 12.1244C28.0049 6.02291 29.228 2.66988 29.4187 2.06067C29.5303 1.71188 29.6605 1.53516 29.8046 1.53516C30.0558 1.53516 30.4371 1.55841 30.958 1.60491C31.4788 1.65142 31.8648 1.67467 32.1253 1.67467C32.3857 1.67467 32.7391 1.66072 33.2228 1.62817C33.7064 1.59561 34.0692 1.58166 34.3063 1.58166C34.4831 1.58166 34.6412 1.73513 34.79 2.03741C35.2411 3.00472 36.5572 6.31589 38.7383 11.9756C40.9287 17.6725 42.0262 20.6442 42.0262 20.8906L42.0215 20.886ZM32.2369 8.31097C32.0462 8.71556 31.716 9.59451 31.2556 10.9478C30.758 12.3848 30.5115 13.2266 30.5115 13.4731C30.5115 13.6405 30.7859 13.7288 31.3393 13.7474C31.623 13.766 32.0927 13.7753 32.7484 13.7753C33.3576 13.7753 33.6925 13.7009 33.7576 13.5521C33.7762 13.5056 33.7855 13.4405 33.7855 13.3614C33.7855 13.0592 33.5716 12.2221 33.1484 10.8502C32.7345 9.52476 32.4322 8.67836 32.2369 8.31097Z" fill="#006FA9"/>
<path d="M68.2469 20.4531C68.2469 20.8437 68.0702 21.1088 67.7353 21.2297C67.4563 21.3181 66.7355 21.3692 65.5589 21.3692C64.3823 21.3692 63.601 21.3181 63.0662 21.2297C62.8244 21.1786 62.657 21.1321 62.5779 21.0809C62.4989 21.0298 62.4012 20.8949 62.2803 20.6903C61.6106 19.4532 60.9363 18.2255 60.2759 16.9885C59.1877 15.0027 58.5227 13.9052 58.318 13.7052C57.6484 13.947 57.2019 14.1423 56.9833 14.2958C56.9926 14.6539 56.9926 14.9562 56.9926 15.2166C56.9926 15.5049 56.8717 15.6677 56.6206 15.7049C56.1416 15.7747 55.2766 15.8072 54.0256 15.8072C52.7746 15.8072 52.0399 15.7747 51.6539 15.7049C51.3841 15.6445 51.2539 15.5049 51.2539 15.2771C51.2539 14.7795 51.2632 14.1516 51.2865 13.4029V3.87398C51.2679 3.2043 51.2586 2.62764 51.2586 2.15794C51.2586 1.95796 51.3655 1.85565 51.5562 1.85565C51.8352 1.85565 52.2677 1.87425 52.8444 1.89751C53.4211 1.92076 53.8442 1.93936 54.1326 1.93936C54.4209 1.93936 54.8627 1.92076 55.4487 1.89751C56.0253 1.8696 56.4578 1.85565 56.7462 1.85565C56.9043 1.85565 56.9833 1.94401 56.9833 2.10678C56.9833 2.78576 56.9508 3.81352 56.881 5.19008C56.8113 6.56663 56.7741 7.5944 56.7741 8.27337C56.7741 9.06396 56.9926 9.45926 57.4205 9.45926C58.518 9.45926 59.3737 9.16163 59.9736 8.56171C60.4247 8.12456 60.8805 7.31537 61.3409 6.14809C61.6385 5.25984 62.1268 3.94374 62.7965 2.20444C62.8941 1.96726 63.0988 1.85565 63.415 1.85565C63.6522 1.85565 64.0149 1.87425 64.4939 1.89751C64.9822 1.92076 65.3403 1.93936 65.5821 1.93936C65.824 1.93936 66.2007 1.93006 66.689 1.91146C67.1866 1.89286 67.554 1.8789 67.7865 1.8789C68.019 1.8789 68.1167 1.99052 68.1167 2.19979C68.1167 2.50208 67.926 3.24616 67.54 4.42274C66.4006 7.89668 65.0845 10.0731 63.6057 10.9381C63.3034 11.1148 63.1546 11.259 63.1546 11.366C63.1639 11.366 64.0103 12.7518 65.6984 15.5096C67.3958 18.2767 68.2515 19.9276 68.2515 20.4484H68.2562L68.2469 20.4531Z" fill="#006FA9"/>
<path d="M24.9686 8.929C24.9686 8.95691 24.1129 10.8125 22.4015 14.491C20.6622 18.244 19.667 20.3553 19.4205 20.8297C19.3368 20.9971 19.2857 21.0855 19.2671 21.1041C19.2299 21.1506 19.1415 21.1924 19.002 21.2296C18.7741 21.2854 18.1184 21.3133 17.0441 21.3133C16.0396 21.3133 15.4258 21.2854 15.2072 21.2296C15.0212 21.1831 14.9096 21.1459 14.877 21.118C14.8398 21.0901 14.7793 21.0018 14.6956 20.8576C14.6398 20.7553 14.3794 20.1089 13.9097 18.9137L12.4029 15.077L10.8729 18.9555C10.7148 19.3973 10.459 20.0298 10.1009 20.8622C10.0079 21.0204 9.9428 21.1134 9.91024 21.1459C9.87304 21.1785 9.76608 21.2064 9.59401 21.2343C9.28243 21.2901 8.67786 21.318 7.78496 21.318C6.67814 21.318 6.01777 21.2901 5.79919 21.2343C5.64107 21.1971 5.51551 21.0669 5.4132 20.8343C1.8044 13.4261 0 9.45916 0 8.9383C0 8.20352 0.0232543 7.10135 0.0744099 5.63178C0.125566 4.16222 0.14882 4.78539 0.14882 4.0506C0.14882 3.74832 0.241828 3.59485 0.423199 3.59485C0.948707 3.59485 1.73929 3.61811 2.80426 3.66461C3.86923 3.71112 4.66446 3.73437 5.19927 3.73437C5.4132 3.73437 5.51551 3.82273 5.51551 3.9948C5.51551 4.72958 5.48296 4.11571 5.4132 5.60388C5.34344 7.09205 5.30624 8.20352 5.30624 8.9383C5.30624 9.21268 5.64107 10.0916 6.3154 11.5752C6.92462 12.9005 7.36176 13.7981 7.64079 14.2678C7.77566 14.5096 7.86867 14.6259 7.91518 14.6259C7.98959 14.6259 8.18026 14.1841 8.48254 13.3005C9.34754 10.8264 9.78933 9.3615 9.80793 8.9104C9.84514 8.06401 9.84979 6.98974 9.82188 5.67829C9.79398 3.79018 9.78003 2.71125 9.78003 2.43687C9.78003 2.26015 9.79398 2.15784 9.82188 2.12529C9.84979 2.09274 9.9521 2.06018 10.1242 2.03693C10.5939 1.98112 11.4031 1.95322 12.5517 1.95322C14.3096 1.95322 15.1886 2.07878 15.1886 2.32526C15.1886 2.93913 15.1653 3.89714 15.1188 5.19928C15.0723 6.45958 15.0584 7.41758 15.063 8.07331V8.77554C15.063 9.24524 15.5374 10.7427 16.4861 13.2633C16.807 14.1376 17.0023 14.5747 17.0674 14.5747C17.1139 14.5747 17.2022 14.4538 17.3418 14.2166C17.5975 13.7655 18.0114 12.8726 18.5835 11.5379C19.2159 10.0823 19.5368 9.21734 19.5368 8.94296C19.5368 8.19887 19.5043 7.08275 19.4345 5.59458C19.3647 4.10641 19.3322 1.12078 19.3322 0.385992C19.3322 0.218574 19.4391 0.139515 19.6484 0.139515C20.1925 0.139515 21.011 0.116262 22.0992 0.0697568C23.1875 0.0232515 24.006 0 24.5501 0C24.7268 0 24.8105 0.18602 24.8105 0.553412C24.8105 1.28354 24.8337 4.24593 24.8849 5.69689C24.9361 7.1432 24.9593 8.23142 24.9593 8.94761H24.964L24.9686 8.929Z" fill="#006FA9"/>
<path d="M56.1139 21.4619C55.3233 21.4619 54.2909 21.4433 53.0213 21.4061C51.3657 21.3689 50.3333 21.3457 49.9287 21.3364L45.799 21.2806C45.3851 21.2899 44.7899 21.2713 44.0179 21.2248C43.7528 21.1783 43.6179 21.0341 43.6179 20.7969C43.6179 19.7924 43.6365 18.2903 43.6644 16.2906C43.697 14.2908 43.7109 12.7841 43.7109 11.7842C43.7109 10.7192 43.6784 9.11945 43.6133 6.98951C43.5482 4.85957 43.5156 3.25979 43.5156 2.19482C43.5156 1.99485 43.6505 1.89254 43.9295 1.89254C44.2086 1.89254 44.6178 1.90649 45.1666 1.9344C45.7153 1.9623 46.1199 1.97625 46.3896 1.97625C46.6919 1.97625 47.143 1.9623 47.7429 1.92974C48.3429 1.89719 48.794 1.88324 49.0962 1.88324C49.2311 1.88324 49.2962 1.9716 49.2869 2.14367L49.273 2.32504C49.1614 4.05503 49.0404 6.65468 48.9009 10.124L48.887 13.7653C48.887 14.9419 48.8916 15.8023 48.9009 16.3464C48.9102 16.458 48.9195 16.5696 48.9288 16.6766C48.9381 16.7882 49.0079 16.8579 49.1381 16.8858H49.4962C50.324 16.8858 51.5657 16.844 53.2166 16.7556C54.8675 16.6673 56.1092 16.6254 56.937 16.6254C57.1881 16.6254 57.3091 16.7324 57.3091 16.9416C57.3091 18.5135 57.1928 19.8715 56.9649 21.0155C56.9184 21.2573 56.8207 21.3968 56.6766 21.4433C56.6301 21.4619 56.444 21.4712 56.1092 21.4712L56.1139 21.4619Z" fill="#006FA9"/>
<path d="M78.5277 17.7557C78.5277 17.951 78.5044 18.2533 78.4533 18.6532C78.4068 19.0532 78.3789 19.3462 78.3789 19.5322C78.3789 19.7182 78.3603 19.8391 78.3184 19.8903C78.2812 19.9414 78.1696 20.0205 77.9929 20.1182C77.1465 20.5832 76.2071 20.8157 75.1793 20.8157C73.2819 20.8157 72.3378 20.0903 72.3378 18.6393C72.3378 18.2068 72.3564 17.5557 72.3843 16.6861C72.4169 15.8164 72.4309 15.1653 72.4309 14.7329C72.4309 14.4445 72.2634 14.3004 71.9286 14.3004H71.803C71.7426 14.3097 71.7007 14.3097 71.6775 14.3097C71.4263 14.3097 71.3008 14.2213 71.3008 14.0446C71.3008 13.9423 71.3101 13.7795 71.324 13.5656C71.3426 13.3516 71.3473 13.1889 71.3473 13.0819C71.3473 12.947 71.338 12.7331 71.324 12.4541C71.3054 12.1704 71.3008 11.9611 71.3008 11.8216C71.3008 11.6821 71.51 11.617 71.9332 11.6077C72.1704 11.5984 72.296 11.5379 72.3192 11.4124C72.3564 11.1659 72.3704 10.7706 72.3564 10.2311C72.3285 9.38475 72.3192 8.98015 72.3192 9.02201C72.3192 8.26397 72.389 7.88263 72.5332 7.88263C72.7099 7.88263 72.961 7.92449 73.2912 8.00354C73.6632 8.08725 73.9237 8.13841 74.0678 8.15236C74.4027 8.19887 74.9049 8.25932 75.5839 8.33838C75.7467 8.35233 75.8304 8.40814 75.8304 8.5058C75.8304 8.77088 75.8071 9.16617 75.7653 9.69633C75.7234 10.2265 75.7002 10.6264 75.7002 10.8962C75.7002 11.2171 75.7932 11.3752 75.9885 11.3752C76.2164 11.3752 76.5652 11.3659 77.0302 11.3473C77.4953 11.3287 77.8487 11.3147 78.0812 11.3147C78.2254 11.3147 78.2951 11.3612 78.2951 11.4635C78.2951 11.617 78.2766 11.8402 78.2487 12.1425C78.2161 12.4448 78.1975 12.6727 78.1975 12.8215C78.1975 12.9703 78.1975 13.2075 78.2068 13.5098C78.2114 13.812 78.2161 14.0399 78.2161 14.198C78.2161 14.3329 78.1231 14.4073 77.9324 14.4073C77.8022 14.4073 77.579 14.4027 77.272 14.3934C76.9651 14.3841 76.7465 14.3794 76.6117 14.3794H75.8769C75.7792 14.3794 75.7281 14.5236 75.7281 14.8119V15.5095C75.7374 15.8257 75.7374 16.0582 75.7374 16.2071C75.7374 16.7605 75.7978 17.1372 75.9234 17.3511C76.1001 17.6348 76.4489 17.7743 76.9651 17.7743C77.1279 17.7743 77.3651 17.7371 77.6673 17.6627C77.9696 17.5883 78.1882 17.5511 78.3091 17.5511C78.444 17.5511 78.5184 17.6208 78.5184 17.765L78.5277 17.7557Z" fill="#006FA9"/>
<path d="M89.377 13.5057L89.3583 20.2955C89.3583 20.5234 89.2653 20.6536 89.084 20.6815C88.8747 20.7047 88.3957 20.7233 87.647 20.7233C86.8982 20.7233 86.4239 20.6954 86.1402 20.6443C85.9263 20.6024 85.8147 20.4629 85.8147 20.2211C85.8147 19.6584 85.824 18.8073 85.8472 17.6726C85.8658 16.5379 85.8798 15.6868 85.8798 15.1241C85.8798 14.3568 85.4891 13.9708 84.7078 13.9708C84.4474 13.9708 84.1358 14.0731 83.7824 14.287C83.3964 14.5149 83.2011 14.7567 83.2011 15.0078V17.4401C83.2011 17.7563 83.2057 18.2307 83.2197 18.8631C83.2336 19.4956 83.2383 19.9699 83.2383 20.2862C83.2383 20.528 83.136 20.6629 82.936 20.6908C82.7314 20.714 82.164 20.7326 81.2246 20.7326C80.6851 20.7326 80.2992 20.7047 80.0666 20.6536C79.8295 20.6024 79.7132 20.4862 79.7132 20.3094C79.7132 19.7886 79.7132 19.0119 79.7225 17.9749C79.7318 16.9332 79.7318 16.1565 79.7318 15.6403C79.7318 13.4964 79.7085 11.7199 79.662 10.3201C79.6434 9.82716 79.6248 9.33421 79.6155 8.8459C79.583 8.27389 79.5225 7.78558 79.4388 7.38098C79.4202 7.29728 79.4062 7.23217 79.4062 7.19496C79.4062 7.0973 79.4574 7.0322 79.5551 6.99964C79.755 6.93919 80.0573 6.90198 80.448 6.89268C80.9735 6.87408 81.2758 6.85548 81.3641 6.84617L83.1453 6.6369C83.2522 6.6369 83.3034 6.70666 83.3034 6.84617C83.3034 7.05545 83.2894 7.34378 83.2615 7.70187C83.2336 8.12042 83.2243 8.4041 83.2243 8.55757C83.1825 10.0411 83.1639 11.2084 83.1639 12.0687C83.1639 12.1989 83.1964 12.264 83.2615 12.264C83.2755 12.264 83.4429 12.1478 83.7638 11.9199C84.1451 11.6502 84.5079 11.4409 84.8567 11.2781C85.3775 11.0502 85.8751 10.934 86.3634 10.934C87.2052 10.934 87.9027 11.1526 88.4701 11.5944C89.0793 12.0641 89.3862 12.7151 89.3862 13.5336H89.3816L89.377 13.5057Z" fill="#006FA9"/>
<path d="M99.994 15.296C99.994 15.961 99.7801 16.3377 99.3523 16.4261C99.2825 16.44 98.6035 16.5098 97.3153 16.64C96.5387 16.7237 95.3854 16.826 93.8507 16.9423C93.9437 17.3701 94.2181 17.6957 94.6878 17.9189C95.0691 18.1049 95.5016 18.1933 95.9853 18.1933C96.5712 18.1933 97.1572 18.0351 97.7478 17.7236C97.999 17.5654 98.2454 17.4073 98.4966 17.2539C98.6314 17.319 98.864 17.6538 99.1895 18.2584C99.515 18.8629 99.6778 19.2443 99.6778 19.4117C99.6778 19.4582 99.6313 19.5326 99.529 19.6396C98.7291 20.4999 97.4874 20.9278 95.7993 20.9278C94.2367 20.9278 92.9811 20.472 92.023 19.5605C91.0371 18.6351 90.5488 17.398 90.5488 15.8494C90.5488 14.3008 90.986 13.1056 91.8696 12.1383C92.7718 11.1431 93.9716 10.6408 95.4691 10.6408C96.7294 10.6408 97.799 11.1012 98.6779 12.0174C99.5569 12.9382 99.9987 14.0264 99.9987 15.2913L99.994 15.296ZM96.5526 14.6961C96.5526 14.2868 96.4085 13.9334 96.1201 13.6218C95.8318 13.3149 95.4877 13.1567 95.0877 13.1567C94.6878 13.1567 94.3343 13.3335 94.0646 13.6776C93.8135 13.9985 93.6926 14.3752 93.6926 14.8077C93.6926 14.9844 93.7856 15.0728 93.967 15.0728C94.4506 15.0728 95.2086 14.9983 96.2318 14.8449C96.4457 14.8123 96.5573 14.7612 96.5573 14.6868L96.5526 14.6961Z" fill="#006FA9"/>
<path d="M86.2446 37.4231C86.2446 37.758 86.1795 38.3765 86.0446 39.2787C85.9051 40.2553 85.7796 40.8413 85.6679 41.0273C85.5749 41.1761 85.4447 41.2505 85.282 41.2505C85.2122 41.2505 85.0959 41.2366 84.9285 41.2133C84.3565 41.1342 82.687 41.097 79.9246 41.097C79.32 41.097 78.4271 41.097 77.2366 41.0877C76.046 41.0784 75.1531 41.0738 74.5579 41.0738C74.3021 41.0738 74.1719 40.9575 74.1719 40.7343C74.1719 39.8553 74.223 38.5393 74.316 36.7814C74.4137 35.0235 74.4602 33.7074 74.4602 32.8284C74.4602 31.9495 74.4137 30.2706 74.3207 27.8384C74.2974 27.2106 74.2556 26.2758 74.1905 25.0295L74.1812 24.8667C74.1626 24.6853 74.2649 24.597 74.4742 24.597C75.0555 24.597 75.9251 24.6109 77.0878 24.6435C78.2504 24.676 79.12 24.69 79.7013 24.69C80.2827 24.69 81.1337 24.676 82.2824 24.6435C83.4357 24.6109 84.296 24.597 84.8681 24.597C85.2773 24.597 85.5098 24.7505 85.5703 25.0527C85.6121 25.2341 85.6726 25.7782 85.7517 26.6897C85.8354 27.6012 85.8726 28.1546 85.8726 28.35C85.8726 28.5174 85.7935 28.5964 85.64 28.5964C85.5935 28.5964 85.5098 28.5964 85.3936 28.5825C83.3101 28.4104 81.4406 28.3267 79.7804 28.3267C79.3665 28.3267 79.1107 28.4244 79.0177 28.6197C78.9805 28.7127 78.9619 29.015 78.9619 29.5219C78.9619 30.0288 79.041 30.4055 79.1944 30.5776C79.3293 30.7264 79.5804 30.8008 79.9571 30.8008C80.0362 30.8008 80.185 30.7961 80.4129 30.7822C80.6407 30.7682 80.8268 30.7636 80.9756 30.7636C81.9615 30.7636 82.9613 30.7357 83.9705 30.6799C84.0589 30.6706 84.2728 30.652 84.6169 30.6194C84.882 30.5869 85.0959 30.5729 85.2494 30.5729C85.4354 30.5729 85.5331 30.6613 85.5331 30.8426C85.5331 30.6799 85.4633 31.2751 85.3238 32.6377C85.2587 33.2656 85.2308 33.8887 85.2308 34.5166C85.2308 34.6747 85.1192 34.7491 84.8913 34.7491L83.8356 34.6328C83.3892 34.5863 82.3707 34.5631 80.7803 34.5631H79.5339C79.213 34.5631 79.0224 34.6421 78.9712 34.7956C78.9619 34.8328 78.9619 35.0793 78.9619 35.5257C78.9619 36.121 78.9991 36.5023 79.0782 36.679C79.213 36.9767 79.7106 37.1534 80.5803 37.2046C80.5663 37.2046 81.1337 37.2046 82.2963 37.2046C82.7102 37.2046 83.3287 37.1673 84.1472 37.0929C84.9657 37.0185 85.5796 36.9813 85.9842 36.9813C86.1563 36.9813 86.24 37.1208 86.24 37.4045V37.4138L86.2446 37.4231Z" fill="#006FA9"/>
<path d="M99.8843 27.9778C99.8843 28.1359 99.796 28.2103 99.6285 28.2103C99.3309 28.2103 98.1543 28.1498 96.0942 28.0336C96.0476 30.0147 96.0244 31.3959 96.0244 32.1818C96.0244 33.1073 96.0616 34.4931 96.136 36.3534C96.2104 38.2089 96.2476 39.5994 96.2476 40.5202C96.2476 40.669 96.2104 40.7621 96.1453 40.8039C96.1221 40.8179 96.0104 40.8411 95.8151 40.8644C95.3454 40.9295 94.6571 40.9574 93.7456 40.9574C92.7365 40.9574 92.025 40.9248 91.6204 40.8644C91.4018 40.8225 91.2902 40.7062 91.2902 40.5016C91.2902 39.5762 91.3274 38.1903 91.4064 36.3441C91.4855 34.4978 91.5227 33.1119 91.5227 32.1865C91.5227 31.5773 91.4901 30.2147 91.4297 28.0987C89.8625 28.2568 88.6161 28.3312 87.686 28.3312C87.5605 28.3312 87.5 28.294 87.5 28.2149C87.5 28.1126 87.5558 27.8103 87.6628 27.3127C87.7883 26.764 87.8581 26.4338 87.872 26.3129C87.8953 25.9455 87.9232 25.5781 87.9558 25.2061C88.0116 24.6201 88.1046 24.3271 88.2394 24.3271C88.2534 24.3271 88.3092 24.3271 88.4022 24.3411C89.6718 24.5038 91.546 24.5875 94.0293 24.5875C94.7316 24.5875 96.0337 24.5131 97.9265 24.3643C98.9449 24.2853 99.4565 24.248 99.4658 24.248C99.6239 24.248 99.7122 24.2573 99.7355 24.2759C99.7588 24.2946 99.7774 24.3736 99.782 24.5038C99.782 24.7131 99.7774 25.0061 99.7588 25.3828C99.7402 25.7967 99.7355 26.0897 99.7355 26.2617C99.7355 26.457 99.7588 26.7454 99.8099 27.1267C99.8611 27.5081 99.8843 27.7917 99.8843 27.9778Z" fill="#006FA9"/>
<path d="M19.2817 32.4701C19.2817 34.8232 18.6632 36.73 17.4308 38.1856C16.1101 39.7295 14.2871 40.5062 11.9618 40.5062C11.5712 40.5062 10.9852 40.4829 10.2039 40.4411C9.42262 40.3992 8.83665 40.376 8.44601 40.376C8.02746 40.376 7.81819 40.5573 7.81819 40.9154C7.81819 41.3619 7.86004 42.0269 7.9484 42.9151C8.03676 43.7987 8.07862 44.4591 8.07862 44.9009C8.07862 45.1241 7.97631 45.2358 7.77169 45.2358C7.18107 45.2358 6.28817 45.2218 5.10229 45.1846C3.91641 45.1521 3.02816 45.1334 2.43289 45.1334C2.14921 45.1334 2.0097 44.9939 2.0097 44.7102C2.0097 43.6313 2.0283 42.0083 2.06085 39.8458C2.0934 37.6833 2.11201 36.0603 2.11201 34.9814C2.11201 31.926 1.9818 28.7171 1.71672 25.3548L1.70277 25.1501C1.68416 24.9641 1.82833 24.8525 2.13991 24.8153C2.89795 24.7177 4.57213 24.6711 7.15782 24.6711C8.68319 24.6711 10.1481 24.6897 11.5479 24.727C13.8546 24.7967 15.7101 25.5175 17.1192 26.8987C18.5609 28.3172 19.2771 30.1774 19.2771 32.4701H19.2817ZM13.4639 32.7026C13.4639 30.4378 12.3617 29.3031 10.1527 29.3031C8.59483 29.3031 7.78098 29.3914 7.70193 29.5635C7.63217 29.6891 7.59961 30.8145 7.59961 32.9351C7.59961 33.2374 7.60892 33.6792 7.63682 34.2698C7.66007 34.8558 7.67402 35.3022 7.67402 35.6045C7.67402 35.7998 8.54832 35.8975 10.2969 35.8975C12.4082 35.8975 13.4639 34.8325 13.4639 32.7026Z" fill="#006FA9"/>
<path d="M34.6833 45.38C33.8462 45.38 32.758 45.3614 31.4186 45.3242C29.67 45.2823 28.5818 45.2591 28.154 45.2498L23.7918 45.194C23.3546 45.2033 22.7268 45.1847 21.9083 45.1382C21.6246 45.0917 21.4851 44.9382 21.4851 44.6871C21.4851 43.6268 21.5037 42.0363 21.5363 39.9249C21.5688 37.809 21.5874 36.2231 21.5874 35.1628C21.5874 34.0327 21.5549 32.3446 21.4851 30.0937C21.4154 27.8429 21.3828 26.1547 21.3828 25.0247C21.3828 24.8107 21.527 24.7038 21.82 24.7038C22.1129 24.7038 22.5501 24.7177 23.1268 24.7456C23.7034 24.7735 24.1359 24.7875 24.4196 24.7875C24.7405 24.7875 25.2148 24.7689 25.8473 24.7363C26.4798 24.7038 26.9541 24.6852 27.275 24.6852C27.4192 24.6852 27.4889 24.7782 27.4796 24.9642L27.4657 25.1549C27.3494 26.9825 27.2192 29.731 27.0704 33.3956L27.0564 37.2462C27.0564 38.4926 27.0611 39.3994 27.0704 39.9761C27.0797 40.0924 27.089 40.2086 27.0983 40.3249C27.1076 40.4411 27.182 40.5156 27.3169 40.5435H27.6982C28.5725 40.5435 29.884 40.497 31.6279 40.404C33.3718 40.3109 34.6833 40.2644 35.5576 40.2644C35.8227 40.2644 35.9529 40.376 35.9529 40.5993C35.9529 42.2642 35.832 43.6965 35.5901 44.901C35.5436 45.1521 35.4413 45.3056 35.2832 45.3521C35.2367 45.3707 35.0367 45.38 34.6833 45.38Z" fill="#006FA9"/>
<path d="M70.4938 24.6668C69.9079 24.6668 69.0289 24.6901 67.8523 24.7366C66.6757 24.7924 65.7968 24.8157 65.2108 24.8157C65.0062 24.8157 64.9039 24.9877 64.9039 25.3505C64.9039 26.3829 64.9597 27.9269 65.0713 29.9731C65.1829 32.024 65.2434 33.5586 65.2434 34.5818C65.2434 35.3398 65.1736 35.7165 65.0481 35.7165C64.876 35.7165 64.6714 35.5677 64.4249 35.2654C63.439 33.9725 62.7089 32.9866 62.2206 32.317L57.9049 26.4015C57.5514 26.1829 57.1003 25.9504 56.612 26.0248C55.6912 26.169 54.5937 25.955 52.7335 26.355C52.6359 26.3782 52.5382 26.3968 52.4452 26.4201C51.7755 26.5922 51.3151 27.1967 51.3337 27.8897C51.357 28.5593 51.3849 29.3081 51.4128 30.1266C51.5058 32.3588 51.5569 34.0283 51.5569 35.1445C51.5569 36.2606 51.5104 37.7906 51.4081 39.9113C51.3058 42.0412 51.25 43.6224 51.25 44.6687C51.25 44.9664 51.3942 45.1152 51.6732 45.1152H56.7144C56.9841 45.1152 57.1096 44.9478 57.1096 44.6129C57.1096 43.4782 57.0771 41.7901 57.012 39.5299C56.9469 37.2744 56.919 35.5816 56.919 34.4562C56.919 34.312 56.9608 34.2051 57.0399 34.1353C57.1515 34.1958 57.2213 34.2562 57.2585 34.3167C58.6304 36.0746 59.6535 37.4046 60.3231 38.3115C62.774 41.5482 64.3505 43.6363 65.0434 44.585C65.2899 44.9059 65.4992 45.064 65.6759 45.064C65.927 45.064 66.3084 45.078 66.8199 45.1198C67.3222 45.1571 67.7035 45.1803 67.9546 45.1803C68.1918 45.1803 68.5406 45.1757 69.0103 45.1477C69.4847 45.1291 69.8381 45.1152 70.066 45.1152C70.3497 45.1152 70.4892 44.9896 70.4892 44.7199V35.1073C70.4892 33.9865 70.5357 32.3263 70.6333 30.1033C70.7217 27.8804 70.7682 26.2108 70.7682 25.0993C70.7682 24.8017 70.6752 24.6529 70.4938 24.6529V24.6668Z" fill="#006FA9"/>
<path d="M48.8402 44.0729C47.4543 40.9617 42.4131 27.8751 41.2924 24.9499C41.1575 24.6058 40.8227 24.3872 40.4413 24.3965C38.6276 24.4384 37.2883 24.3082 36.5349 24.2059C36.1257 24.15 35.7304 24.3872 35.5908 24.7732L30.5404 38.6457C30.4381 38.9527 30.6659 39.2596 30.9822 39.255L35.2932 39.0736C35.6141 39.055 35.9024 38.8597 36.0419 38.576C36.1768 38.3155 36.3582 38.0272 36.5768 37.9063C36.9069 37.7249 38.9067 37.8365 39.8647 37.9063C40.1809 37.9249 40.4553 38.1109 40.5901 38.4039C41.0459 39.3898 42.069 41.7523 42.2783 43.5334C42.5387 45.8401 43.3246 45.1565 46.3428 45.375C47.2776 45.4448 47.9054 45.3843 48.3053 45.2727C48.8169 45.1239 49.068 44.5472 48.8495 44.0682L48.8402 44.0729ZM39.7624 36.0461H37.6092C37.1999 36.0461 36.8837 35.6694 36.9534 35.2602L37.9301 29.8469C37.9766 29.6005 38.3253 29.5865 38.3858 29.8283L39.9205 35.8229C39.953 35.9345 39.8647 36.0414 39.7531 36.0414L39.7624 36.0461Z" fill="#006FA9"/>
</svg>
