<svg width="428" height="332" viewBox="0 0 428 332" fill="none" xmlns="http://www.w3.org/2000/svg">
<g clip-path="url(#clip0_1560_129935)">
<g opacity="0.1">
<path d="M1058.55 1388.02C1053.69 1371.48 1043.22 1356.6 1031.37 1343.84C1005.21 1315.85 971.612 1295.81 944.538 1268.68C917.465 1241.55 896.688 1202.8 906.419 1165.77C911.742 1145.57 925.822 1127.37 925.707 1106.47C925.593 1084.15 908.88 1064.86 889.648 1053.59C870.359 1042.25 848.323 1036.87 827.66 1028.4C779.238 1008.43 750.104 974.314 720.341 933.218C692.867 895.212 658.353 864.533 609.587 859.725C598.484 858.638 586.922 858.809 576.791 854.23C548.63 841.409 546.913 801.172 525.277 779.136C510.796 764.368 488.703 759.217 473.821 744.793C445.661 717.491 452.701 667.638 426.086 638.791C409.716 621.047 384.474 615.438 362.782 604.906C341.089 594.375 320.083 572.338 326.551 549.1C329.985 536.794 340.287 527.865 349.903 519.451C375.717 496.9 402.332 466.908 396.551 433.138C392.03 406.694 368.906 387.806 356.657 363.938C330.729 313.341 351.792 238.418 305.201 205.793C284.424 191.254 254.203 189.709 239.951 168.76C233.254 158.973 231.594 146.724 228.103 135.391C225.012 125.317 220.261 115.873 214.194 107.288C202.175 90.1738 176.075 106.944 186.606 125.088L210.302 165.841C217.228 177.689 224.268 189.823 234.628 198.867C254.775 216.496 285.397 220.846 301.652 242.138C323.918 271.272 307.433 314.257 319.053 349.057C331.645 386.719 376.862 415.051 368.791 453.915C360.149 495.469 295.757 508.576 291.636 550.874C289.118 576.86 311.898 598.152 334.621 611.031C357.344 623.909 383.501 634.383 397.009 656.706C417.042 689.846 403.134 739.814 432.496 765.112C447.149 777.762 467.926 779.422 486.185 785.89C522.988 798.94 550.576 834.713 553.839 873.634C555.384 892.179 551.893 911.41 557.673 929.154C565.458 953.251 588.124 968.819 609.416 982.556C678.1 1027.03 746.785 1071.56 815.469 1116.03C825.943 1122.84 837.62 1129.94 850.04 1128.4C862.461 1126.85 873.107 1111.51 865.551 1101.61C861.201 1095.89 853.245 1094.63 846.148 1093.42C809.287 1087.3 774.087 1071.5 745.068 1048.04C712.557 1021.76 686.972 985.647 648.909 968.361C633.226 961.264 615.941 957.658 601.002 949.072C586.063 940.487 573.128 924.804 575.245 907.69C578.451 881.475 614.796 871.688 638.435 883.536C662.074 895.384 676.154 919.71 691.608 941.174C731.903 997.323 789.598 1040.88 854.676 1064.23C872.534 1070.64 893.311 1077.74 899.779 1095.6C907.907 1118.15 887.759 1139.96 879.46 1162.39C863.949 1204.69 892.396 1250.71 926.051 1280.7C959.706 1310.7 1000.86 1334.39 1023.35 1373.48C1029.71 1384.59 1034.46 1397.3 1032.68 1409.94C1030.91 1422.59 1020.95 1434.73 1008.19 1435.47C992.331 1436.45 980.827 1421.28 972.413 1407.83C939.387 1355.11 906.361 1302.4 873.278 1249.68C847.007 1207.73 818.159 1163.48 772.942 1143.28C753.481 1134.58 731.502 1130.69 714.56 1117.69C694.756 1102.47 681.763 1075.05 656.98 1071.96C634.772 1069.16 613.079 1088.22 591.558 1082.15C575.245 1077.51 566.259 1060.4 559.677 1044.77C526.994 967.503 504.042 881.99 443.715 823.666C432.725 813.02 419.618 803.061 404.336 801.859C389.053 800.657 372.054 811.761 372.226 827.043C372.283 834.942 376.747 842.154 381.498 848.45C381.613 848.621 381.784 848.793 381.899 848.965C389.969 859.496 406.053 848.163 398.898 837.002C395.807 832.137 400.386 826.07 405.881 827.673C416.813 830.821 426.601 840.665 434.099 850.052C482.693 911.01 517.951 982.613 536.61 1058.28C542.334 1081.46 550.576 1109.51 573.814 1115C589.612 1118.78 605.867 1109.79 622.065 1110.77C644.388 1112.14 660.757 1131.2 679.188 1143.91C714.961 1168.52 763.383 1170.46 797.153 1197.77C820.849 1216.94 834.014 1245.85 848.781 1272.46C876.255 1321.91 911.856 1366.33 947.286 1410.46C968.864 1437.36 1000.8 1467.3 1032.74 1454.42C1052.95 1446.29 1063.48 1422.25 1061.19 1400.61C1060.61 1396.44 1059.76 1392.14 1058.55 1388.02Z" fill="#80B7D4"/>
<path d="M1184.25 1030.18C1181.33 1011.98 1172.46 994.463 1161.01 979.81C1144.47 958.575 1122.95 941.862 1102.86 923.947C1042.93 870.373 995.021 804.264 933.834 752.064C879.459 705.702 814.896 670.559 768.877 615.897C745.925 588.595 727.381 556.371 697.56 536.796C651.484 506.632 590.87 514.359 537.411 527.638C518.923 532.217 499.52 537.311 481.204 532.159C462.888 526.951 447.32 506.975 454.303 489.289C461.171 471.889 484.238 467.539 502.668 470.859C502.84 470.916 503.011 470.916 503.24 470.973C517.664 473.663 526.879 456.034 516.29 445.846C492.537 423.009 471.76 397.138 454.703 368.977C450.239 361.651 445.889 353.981 441.367 346.311C432.267 330.914 408.799 342.362 415.324 358.96C427.917 391.299 433.926 424.84 425.112 458.038C419.216 480.131 407.254 504.743 419.331 524.146C425.799 534.506 437.647 540.116 449.094 544.408C495.227 561.808 545.596 567.933 594.533 562.094C625.155 558.431 657.78 550.475 685.597 563.812C706.775 573.943 720.627 594.548 734.306 613.608C756.972 645.088 782.385 675.138 812.778 699.463C827.373 711.14 843.572 722.988 861.143 729.627C878.085 735.98 887.759 744.452 901.209 757.158C966.746 819.031 1030.05 883.251 1091.06 949.646C1111.21 971.568 1131.07 993.661 1150.65 1016.04C1156.89 1023.14 1163.07 1030.24 1169.19 1037.33C1174.86 1043.86 1185.62 1038.94 1184.25 1030.41C1184.25 1030.35 1184.25 1030.29 1184.25 1030.18Z" fill="#80B7D4"/>
<path d="M979.968 293.996C982.43 266.808 958.676 243.341 933.549 232.123C907.964 220.732 879.231 217.012 854.734 203.39C820.907 184.616 798.985 149.186 765.616 129.611C746.67 118.507 724.577 112.898 706.891 99.8479C672.72 74.6636 661.502 27.0997 628.304 0.599014C607.699 -15.828 578.394 -24.757 568.606 -49.2544C566.374 -54.8064 565.687 -61.9038 569.98 -66.0821C572.784 -68.8294 576.963 -69.5163 580.855 -69.8598C622.352 -73.6946 663.162 -53.6045 693.955 -25.5011C724.749 2.60226 747.414 38.261 770.71 72.8894C791.201 103.282 812.951 133.618 840.883 157.028C846.95 162.122 855.65 155.082 851.929 148.042C851.872 147.984 851.872 147.927 851.815 147.87C823.883 95.7842 785.992 49.8801 748.33 4.37672C728.068 -20.1207 707.291 -45.0761 680.505 -62.1328C650.455 -81.2499 614.51 -89.263 578.966 -92.1249C567.118 -93.0407 552.637 -92.0677 546.971 -81.5933C544.509 -76.9571 544.452 -71.4051 545.025 -66.1965C548.173 -39.2951 566.946 -16.9727 586.979 1.22868C607.012 19.43 629.506 35.7425 644.273 58.4084C655.664 75.9229 662.131 96.6999 676.212 112.154C703.914 142.661 752.051 144.436 778.036 176.66C809.345 215.467 855.535 223.48 900.18 240.594C907.049 243.227 913.802 246.089 920.385 249.351C933.034 255.647 945.512 264.175 951.293 277.111C957.016 289.989 953.182 307.962 940.189 313.514C931.66 317.177 921.758 314.773 913.345 310.938C896.116 303.154 882.036 289.932 866.697 278.828C835.56 256.277 798.985 242.311 766.99 220.961C733.162 198.353 705.059 167.903 670.717 146.038C647.421 131.214 621.321 120.282 600.945 101.68C543.136 48.7926 546.455 -51.1432 484.697 -99.394C463.061 -116.279 436.045 -124.464 409.545 -131.733C400.272 -134.309 386.478 -133.965 385.448 -124.349C385.162 -121.43 386.135 -118.511 387.966 -116.222C404.622 -95.2157 432.668 -89.0913 455.105 -75.0682C521.901 -33.3997 526.938 66.9939 588.009 116.618C603.692 129.382 622.237 137.968 639.752 148.042C675.754 168.704 707.749 195.548 740.775 220.733C791.144 259.081 844.317 293.595 897.49 328.052C916.664 340.53 936.812 353.98 946.657 374.643C953.868 389.811 954.727 407.211 953.697 423.924C952.209 448.307 947 472.461 938.357 495.298C936.297 500.736 934.179 507.261 937.613 511.954C940.933 516.533 948.145 516.533 952.895 513.442C957.589 510.352 960.336 505.029 962.626 499.877C978.137 465.02 982.086 425.183 973.73 387.979C969.895 370.98 963.542 353.751 966.575 336.637C969.094 322.328 977.965 309.679 979.74 295.255C979.854 294.912 979.911 294.454 979.968 293.996Z" fill="#80B7D4"/>
<path d="M1058.55 701.18C1053.69 684.638 1043.22 669.756 1031.37 656.993C1005.21 629.004 971.612 608.971 944.538 581.84C917.465 554.71 896.688 515.961 906.419 478.928C911.742 458.724 925.822 440.522 925.707 419.631C925.593 397.308 908.88 378.019 889.648 366.744C870.359 355.411 848.323 350.031 827.66 341.559C779.238 321.584 750.104 287.47 720.341 246.374C692.867 208.369 658.353 177.69 609.587 172.882C598.484 171.795 586.922 171.966 576.791 167.387C548.63 154.566 546.913 114.329 525.277 92.2923C510.796 77.5251 488.703 72.3738 473.821 57.9501C445.661 30.6481 452.701 -19.2054 426.086 -48.0528C409.716 -65.7963 384.474 -71.4055 362.782 -81.9371C341.089 -92.4687 320.083 -114.505 326.551 -137.743C329.985 -150.049 340.287 -158.978 349.903 -167.392C375.717 -189.943 402.332 -219.936 396.551 -253.705C392.03 -280.149 368.906 -299.037 356.657 -322.905C330.729 -373.502 351.792 -448.426 305.201 -481.051C284.424 -495.589 254.203 -497.134 239.951 -518.083C233.254 -527.871 231.594 -540.119 228.103 -551.452C225.012 -561.526 220.261 -570.97 214.194 -579.556C202.175 -596.669 176.075 -579.899 186.606 -561.755L210.302 -521.002C217.228 -509.154 224.268 -497.02 234.628 -487.976C254.775 -470.347 285.397 -465.997 301.652 -444.705C323.918 -415.572 307.433 -372.587 319.053 -337.786C331.645 -300.125 376.862 -271.792 368.791 -232.928C360.149 -191.374 295.757 -178.267 291.636 -135.969C289.118 -109.983 311.898 -88.6911 334.621 -75.8128C357.344 -62.9344 383.501 -52.46 397.009 -30.1376C417.042 3.00262 403.134 52.9705 432.496 78.2692C447.149 90.9186 467.926 92.5786 486.185 99.0463C522.988 112.096 550.576 147.87 553.839 186.791C555.384 205.335 551.893 224.567 557.673 242.311C565.458 266.407 588.124 281.976 609.416 295.713C678.1 340.186 746.785 384.716 815.469 429.189C825.943 436.001 837.62 443.098 850.04 441.552C862.461 440.007 873.107 424.668 865.551 414.766C861.201 409.042 853.245 407.783 846.148 406.581C809.287 400.456 774.087 384.659 745.068 361.192C712.557 334.92 686.972 298.803 648.909 281.518C633.226 274.42 615.941 270.815 601.002 262.229C586.063 253.643 573.128 237.961 575.245 220.847C578.451 194.632 614.796 184.845 638.435 196.693C662.074 208.541 676.154 232.866 691.608 254.33C731.903 310.48 789.598 354.037 854.676 377.39C872.534 383.8 893.311 390.898 899.779 408.756C907.907 431.307 887.759 453.114 879.46 475.551C863.949 517.849 892.396 563.868 926.051 593.86C959.706 623.852 1000.86 647.549 1023.35 686.641C1029.71 697.745 1034.46 710.452 1032.68 723.101C1030.91 735.751 1020.95 747.885 1008.19 748.686C992.331 749.659 980.827 734.491 972.413 721.041C939.387 668.325 906.361 615.61 873.278 562.895C847.007 520.94 818.159 476.696 772.942 456.491C753.481 447.791 731.502 443.899 714.56 430.906C694.756 415.681 681.763 388.265 656.98 385.174C634.772 382.369 613.079 401.429 591.558 395.362C575.245 390.726 566.259 373.612 559.677 357.986C526.994 280.716 504.042 195.205 443.715 136.88C432.725 126.234 419.618 116.275 404.336 115.073C389.053 113.871 372.054 124.975 372.226 140.257C372.283 148.156 376.747 155.367 381.498 161.664C381.613 161.835 381.784 162.007 381.899 162.179C389.969 172.71 406.053 161.377 398.898 150.216C395.807 145.351 400.386 139.284 405.881 140.887C416.813 144.035 426.601 153.879 434.099 163.266C482.693 224.224 517.951 295.827 536.61 371.494C542.334 394.675 550.576 422.722 573.814 428.216C589.612 431.994 605.867 423.008 622.065 423.981C644.388 425.354 660.757 444.414 679.188 457.121C714.961 481.733 763.383 483.679 797.153 510.981C820.849 530.155 834.014 559.06 848.781 585.675C876.255 635.128 911.856 679.544 947.286 723.674C968.864 750.575 1000.8 780.51 1032.74 767.632C1052.95 759.504 1063.48 735.465 1061.19 713.829C1060.61 709.593 1059.76 705.301 1058.55 701.18Z" fill="#80B7D4"/>
<path d="M1184.25 343.331C1181.33 325.13 1172.46 307.615 1161.01 292.962C1144.47 271.727 1122.95 255.014 1102.86 237.099C1042.93 183.525 995.021 117.416 933.834 65.2163C879.459 18.8544 814.896 -16.2891 768.877 -70.9504C745.925 -98.2525 727.381 -130.477 697.56 -150.052C651.484 -180.216 590.87 -172.489 537.411 -159.21C518.923 -154.631 499.52 -149.537 481.204 -154.688C462.888 -159.897 447.32 -179.872 454.303 -197.559C461.171 -214.959 484.238 -219.309 502.668 -215.989C502.84 -215.932 503.011 -215.932 503.24 -215.874C517.664 -213.184 526.879 -230.813 516.29 -241.001C492.537 -263.839 471.76 -289.71 454.703 -317.871C450.239 -325.197 445.889 -332.867 441.367 -340.537C432.267 -355.933 408.799 -344.486 415.324 -327.887C427.917 -295.548 433.926 -262.007 425.112 -228.81C419.216 -206.717 407.254 -182.105 419.331 -162.701C425.799 -152.341 437.647 -146.732 449.094 -142.439C495.227 -125.039 545.596 -118.915 594.533 -124.753C625.155 -128.416 657.78 -136.372 685.597 -123.036C706.775 -112.905 720.627 -92.2998 734.306 -73.2399C756.972 -41.7596 782.385 -11.7101 812.778 12.6156C827.373 24.2919 843.572 36.14 861.143 42.7794C878.085 49.1328 887.759 57.6039 901.209 70.3105C966.746 132.184 1030.05 196.404 1091.06 262.799C1111.21 284.72 1131.07 306.814 1150.65 329.193C1156.89 336.291 1163.07 343.388 1169.19 350.486C1174.86 357.011 1185.62 352.088 1184.25 343.56C1184.25 343.503 1184.25 343.445 1184.25 343.331Z" fill="#80B7D4"/>
<path d="M371.652 701.18C366.787 684.638 356.313 669.756 344.465 656.993C318.307 629.004 284.709 608.971 257.636 581.84C230.563 554.71 209.786 515.961 219.516 478.928C224.839 458.724 238.92 440.522 238.805 419.631C238.691 397.308 221.977 378.019 202.746 366.744C183.514 355.468 161.421 350.031 140.758 341.559C92.3356 321.584 63.202 287.47 33.4387 246.374C5.96497 208.369 -28.5489 177.69 -77.3148 172.882C-88.4188 171.795 -99.9807 171.966 -110.112 167.387C-138.272 154.566 -139.989 114.329 -161.625 92.2923C-176.106 77.5251 -198.199 72.3738 -213.081 57.9501C-241.242 30.6481 -234.201 -19.2054 -260.817 -48.0528C-277.186 -65.7963 -302.428 -71.4055 -324.121 -81.9371C-345.814 -92.4687 -366.82 -114.505 -360.352 -137.743C-356.918 -150.049 -346.615 -158.978 -336.999 -167.392C-311.185 -189.943 -284.57 -219.936 -290.351 -253.705C-294.873 -280.149 -317.996 -299.037 -330.245 -322.905C-356.173 -373.502 -335.11 -448.426 -381.701 -481.051C-402.478 -495.589 -432.699 -497.134 -446.951 -518.083C-453.648 -527.871 -455.308 -540.119 -458.799 -551.452C-461.89 -561.526 -466.641 -570.97 -472.708 -579.556C-484.728 -596.669 -510.828 -579.899 -500.296 -561.755L-476.6 -521.002C-469.674 -509.154 -462.634 -497.02 -452.274 -487.976C-432.127 -470.347 -401.505 -465.997 -385.25 -444.705C-362.985 -415.572 -379.469 -372.587 -367.85 -337.786C-355.258 -300.125 -310.04 -271.792 -318.111 -232.928C-326.754 -191.374 -391.145 -178.267 -395.266 -135.969C-397.785 -109.983 -375.004 -88.6911 -352.281 -75.8128C-329.558 -62.9344 -303.401 -52.46 -289.893 -30.1376C-269.86 3.00262 -283.769 52.9705 -254.406 78.2692C-239.753 90.9186 -218.976 92.5786 -200.718 99.0463C-163.914 112.096 -136.326 147.87 -133.064 186.791C-131.518 205.335 -135.01 224.567 -129.229 242.311C-121.445 266.407 -98.7787 281.976 -77.4865 295.713C-8.80215 340.186 59.8822 384.716 128.567 429.189C139.041 436.001 150.717 443.098 163.138 441.552C175.558 440.007 186.204 424.668 178.649 414.766C174.299 409.042 166.343 407.783 159.246 406.581C122.385 400.456 87.1843 384.659 58.1651 361.192C25.6545 334.92 0.0695801 298.803 -37.993 281.518C-53.676 274.42 -70.9615 270.815 -85.9004 262.229C-100.839 253.701 -113.775 237.961 -111.657 220.847C-108.452 194.632 -72.1063 184.845 -48.4674 196.693C-24.8285 208.541 -10.7482 232.866 4.70575 254.33C45.0006 310.48 102.695 354.037 167.774 377.39C185.632 383.8 206.409 390.898 212.877 408.756C221.004 431.307 200.857 453.114 192.558 475.551C177.046 517.849 205.493 563.868 239.148 593.86C272.804 623.852 313.957 647.549 336.451 686.641C342.805 697.745 347.555 710.452 345.781 723.101C344.007 735.751 334.047 747.885 321.284 748.686C305.429 749.659 293.924 734.491 285.51 721.041C252.485 668.325 219.459 615.61 186.376 562.895C160.104 520.94 131.257 476.696 86.0395 456.491C66.5789 447.791 44.6 443.899 27.6578 430.906C7.85382 415.681 -5.13901 388.265 -29.9226 385.174C-52.1306 382.369 -73.8234 401.429 -95.3445 395.362C-111.657 390.726 -120.643 373.612 -127.226 357.986C-159.908 280.716 -182.86 195.205 -243.188 136.88C-254.177 126.234 -267.284 116.275 -282.567 115.073C-297.849 113.871 -314.848 124.975 -314.677 140.257C-314.619 148.156 -310.155 155.367 -305.404 161.664C-305.29 161.835 -305.118 162.007 -305.004 162.179C-296.933 172.71 -280.85 161.377 -288.004 150.216C-291.095 145.351 -286.516 139.284 -281.021 140.887C-270.089 144.035 -260.301 153.879 -252.803 163.266C-204.209 224.224 -168.951 295.827 -150.292 371.494C-144.568 394.675 -136.326 422.722 -113.088 428.216C-97.2906 431.994 -81.0352 423.008 -64.8372 423.981C-42.5148 425.354 -26.145 444.414 -7.71463 457.121C28.0585 481.733 76.481 483.679 110.251 510.981C133.947 530.155 147.111 559.06 161.879 585.675C189.352 635.128 224.954 679.544 260.383 723.674C281.962 750.575 313.9 780.51 345.838 767.632C366.043 759.504 376.575 735.465 374.285 713.829C373.77 709.593 372.911 705.301 371.652 701.18Z" fill="#80B7D4"/>
<path d="M497.402 343.331C494.483 325.13 485.612 307.615 474.164 292.962C457.623 271.727 436.102 255.014 416.011 237.099C356.084 183.525 308.177 117.416 246.991 65.2163C192.615 18.8544 128.052 -16.2891 82.0335 -70.9504C59.0815 -98.2525 40.5367 -130.477 10.7162 -150.052C-35.3596 -180.216 -95.9735 -172.489 -149.433 -159.21C-167.92 -154.631 -187.324 -149.537 -205.64 -154.688C-223.955 -159.897 -239.524 -179.872 -232.541 -197.559C-225.673 -214.959 -202.606 -219.309 -184.176 -215.989C-184.004 -215.932 -183.832 -215.932 -183.603 -215.874C-169.18 -213.184 -159.964 -230.813 -170.553 -241.001C-194.307 -263.839 -215.084 -289.71 -232.14 -317.871C-236.605 -325.197 -240.955 -332.867 -245.477 -340.537C-254.577 -355.933 -278.044 -344.486 -271.519 -327.887C-258.927 -295.548 -252.917 -262.007 -261.732 -228.81C-267.627 -206.717 -279.59 -182.105 -267.513 -162.701C-261.045 -152.341 -249.197 -146.732 -237.75 -142.439C-191.617 -125.039 -141.248 -118.915 -92.3104 -124.753C-61.6886 -128.416 -29.0635 -136.372 -1.24631 -123.036C19.9314 -112.905 33.7827 -92.2998 47.4624 -73.2399C70.1282 -41.7596 95.5415 -11.7101 125.934 12.6156C140.53 24.2919 156.728 36.14 174.3 42.7794C191.242 49.1328 200.915 57.6039 214.365 70.3105C279.902 132.184 343.206 196.404 404.221 262.799C424.368 284.72 444.229 306.814 463.804 329.193C470.043 336.291 476.225 343.388 482.349 350.486C488.016 357.011 498.776 352.088 497.402 343.56C497.402 343.503 497.402 343.445 497.402 343.331Z" fill="#80B7D4"/>
<path d="M371.652 14.3345C366.787 -2.20703 356.313 -17.0886 344.465 -29.8525C318.307 -57.8414 284.709 -77.8743 257.636 -105.005C230.563 -132.135 209.786 -170.884 219.516 -207.917C224.839 -228.121 238.92 -246.323 238.805 -267.214C238.691 -289.537 221.977 -308.826 202.746 -320.101C183.457 -331.377 161.421 -336.815 140.758 -345.286C92.3357 -365.261 63.202 -399.375 33.4388 -440.471C5.965 -478.476 -28.5489 -509.155 -77.3148 -513.963C-88.4188 -515.051 -99.9807 -514.879 -110.112 -519.458C-138.272 -532.279 -139.989 -572.516 -161.625 -594.553C-176.106 -609.32 -198.199 -614.471 -213.081 -628.895C-241.242 -656.197 -234.201 -706.05 -260.817 -734.898C-277.186 -752.641 -302.428 -758.251 -324.121 -768.782C-345.814 -779.314 -366.82 -801.35 -360.352 -824.588C-356.918 -836.894 -346.615 -845.823 -336.999 -854.237C-311.185 -876.788 -284.57 -906.781 -290.351 -940.55C-294.873 -966.994 -317.996 -985.882 -330.245 -1009.75C-356.173 -1060.35 -335.11 -1135.27 -381.701 -1167.9C-402.478 -1182.43 -432.699 -1183.98 -446.951 -1204.93C-453.648 -1214.72 -455.308 -1226.96 -458.799 -1238.3C-461.947 -1248.31 -466.641 -1257.76 -472.708 -1266.34C-484.728 -1283.46 -510.828 -1266.69 -500.296 -1248.54L-476.6 -1207.79C-469.674 -1195.94 -462.634 -1183.81 -452.274 -1174.76C-432.127 -1157.14 -401.505 -1152.79 -385.25 -1131.49C-362.985 -1102.36 -379.469 -1059.37 -367.85 -1024.57C-355.258 -986.912 -310.04 -958.58 -318.111 -919.716C-326.754 -878.162 -391.145 -865.055 -395.266 -822.757C-397.785 -796.771 -375.004 -775.479 -352.281 -762.601C-329.558 -749.722 -303.401 -739.248 -289.893 -716.925C-269.86 -683.785 -283.769 -633.817 -254.406 -608.518C-239.753 -595.869 -218.976 -594.209 -200.718 -587.742C-163.914 -574.691 -136.326 -538.918 -133.064 -499.997C-131.518 -481.452 -135.01 -462.221 -129.229 -444.477C-121.445 -420.38 -98.7787 -404.812 -77.4865 -391.075C-8.80212 -346.602 59.8823 -302.072 128.567 -257.598C139.041 -250.787 150.717 -243.69 163.138 -245.235C175.558 -246.781 186.204 -262.12 178.649 -272.022C174.299 -277.746 166.343 -279.005 159.246 -280.207C122.385 -286.331 87.1843 -302.129 58.1652 -325.596C25.6545 -351.868 0.0695801 -387.984 -37.993 -405.27C-53.676 -412.367 -70.9615 -415.973 -85.9004 -424.559C-100.839 -433.087 -113.775 -448.827 -111.657 -465.941C-108.452 -492.156 -72.1063 -501.943 -48.4674 -490.095C-24.8285 -478.247 -10.7482 -453.921 4.70581 -432.457C45.0007 -376.308 102.696 -332.751 167.774 -309.398C185.632 -302.987 206.409 -295.89 212.877 -278.032C221.004 -255.481 200.857 -233.673 192.558 -211.236C177.046 -168.938 205.493 -122.92 239.148 -92.9276C272.804 -62.9354 313.957 -39.2394 336.451 -0.146484C342.805 10.9575 347.555 23.6641 345.781 36.3135C344.007 48.9629 334.047 61.097 321.284 61.8984C305.429 62.8715 293.924 47.7037 285.51 34.2531C252.485 -18.4623 219.459 -71.1775 186.376 -123.893C160.104 -165.848 131.257 -210.092 86.0396 -230.296C66.579 -238.996 44.6 -242.889 27.6578 -255.881C7.85382 -271.106 -5.13898 -298.523 -29.9226 -301.614C-52.1306 -304.418 -73.8234 -285.358 -95.3445 -291.425C-111.657 -296.062 -120.643 -313.176 -127.225 -328.801C-159.908 -406.071 -182.86 -491.583 -243.188 -549.908C-254.177 -560.554 -267.284 -570.513 -282.567 -571.715C-297.849 -572.917 -314.848 -561.813 -314.677 -546.531C-314.619 -538.632 -310.155 -531.42 -305.404 -525.124C-305.29 -524.953 -305.118 -524.781 -305.004 -524.609C-296.933 -514.077 -280.85 -525.41 -288.004 -536.572C-291.095 -541.437 -286.516 -547.504 -281.021 -545.901C-270.089 -542.753 -260.301 -532.908 -252.803 -523.522C-204.209 -462.564 -168.951 -390.961 -150.292 -315.293C-144.568 -292.112 -136.326 -264.066 -113.088 -258.571C-97.2905 -254.794 -81.0352 -263.78 -64.8372 -262.807C-42.5147 -261.433 -26.1449 -242.373 -7.71463 -229.667C28.0585 -205.055 76.481 -203.109 110.251 -175.807C133.947 -156.632 147.111 -127.728 161.879 -101.113C189.352 -51.6598 224.954 -7.2439 260.383 36.8859C281.962 63.7872 313.9 93.7222 345.838 80.8439C366.043 72.7162 376.575 48.6766 374.285 27.041C373.77 22.7482 372.911 18.4554 371.652 14.3345Z" fill="#80B7D4"/>
<path d="M293.121 293.996C295.582 266.808 271.829 243.341 246.702 232.123C221.117 220.733 192.384 217.012 167.886 203.39C134.059 184.616 112.138 149.186 78.7683 129.611C59.8229 118.507 37.7294 112.898 20.0432 99.8479C-14.1273 74.6637 -25.3458 27.0998 -58.5433 0.59903C-79.1486 -15.828 -108.454 -24.757 -118.241 -49.2544C-120.474 -54.8064 -121.161 -61.9038 -116.868 -66.0821C-114.063 -68.8294 -109.885 -69.5163 -105.993 -69.8598C-64.4959 -73.6946 -23.6859 -53.6045 7.1076 -25.5011C37.9011 2.60226 60.567 38.261 83.8624 72.8894C104.353 103.282 126.103 133.618 154.035 157.028C160.102 162.122 168.802 155.082 165.082 148.042C165.025 147.984 165.024 147.927 164.967 147.87C137.036 95.7842 99.1447 49.8801 61.4828 4.37672C41.2209 -20.1207 20.4438 -45.0761 -6.34311 -62.1328C-36.3925 -81.2499 -72.3374 -89.263 -107.882 -92.1249C-119.73 -93.0407 -134.211 -92.0677 -139.877 -81.5933C-142.338 -76.9571 -142.395 -71.4051 -141.823 -66.1965C-138.675 -39.2951 -119.901 -16.9727 -99.8683 1.22868C-79.8354 19.4301 -57.3413 35.7426 -42.5741 58.4084C-31.184 75.9229 -24.7162 96.6999 -10.6359 112.154C17.0668 142.661 65.2031 144.436 91.1887 176.66C122.497 215.467 168.688 223.48 213.332 240.594C220.201 243.227 226.955 246.089 233.537 249.351C246.187 255.647 258.664 264.175 264.445 277.111C270.169 289.989 266.334 307.962 253.341 313.514C244.813 317.177 234.911 314.773 226.497 310.938C209.269 303.154 195.188 289.932 179.849 278.828C148.712 256.277 112.137 242.311 80.142 220.961C46.3149 198.353 18.2116 167.903 -16.1306 146.038C-39.4261 131.214 -65.5262 120.282 -85.9025 101.68C-143.712 48.7926 -140.392 -51.1432 -202.151 -99.394C-223.786 -116.279 -250.802 -124.464 -277.303 -131.733C-286.575 -134.309 -300.37 -133.965 -301.4 -124.349C-301.686 -121.43 -300.713 -118.511 -298.881 -116.222C-282.225 -95.2157 -254.179 -89.0913 -231.742 -75.0682C-164.947 -33.3997 -159.91 66.9939 -98.8381 116.618C-83.1552 129.382 -64.6104 137.968 -47.0959 148.042C-11.0938 168.704 20.9017 195.548 53.9275 220.733C104.296 259.081 157.469 293.595 210.642 328.052C229.817 340.53 249.964 353.98 259.809 374.643C267.021 389.811 267.879 407.211 266.849 423.924C265.361 448.307 260.152 472.461 251.51 495.298C249.449 500.736 247.331 507.261 250.766 511.954C254.085 516.533 261.297 516.533 266.048 513.442C270.741 510.352 273.489 505.029 275.778 499.877C291.289 465.02 295.239 425.183 286.882 387.979C283.047 370.98 276.694 353.751 279.727 336.637C282.246 322.328 291.118 309.679 292.892 295.255C293.006 294.912 293.064 294.454 293.121 293.996Z" fill="#80B7D4"/>
<path d="M497.402 343.331C494.483 325.13 485.612 307.615 474.164 292.962C457.623 271.727 436.102 255.014 416.011 237.099C356.084 183.525 308.177 117.416 246.991 65.2163C192.615 18.8544 128.052 -16.2891 82.0335 -70.9504C59.0815 -98.2525 40.5367 -130.477 10.7162 -150.052C-35.3596 -180.216 -95.9735 -172.489 -149.433 -159.21C-167.92 -154.631 -187.324 -149.537 -205.64 -154.688C-223.955 -159.897 -239.524 -179.872 -232.541 -197.559C-225.673 -214.959 -202.606 -219.309 -184.176 -215.989C-184.004 -215.932 -183.832 -215.932 -183.603 -215.874C-169.18 -213.184 -159.964 -230.813 -170.553 -241.001C-194.307 -263.839 -215.084 -289.71 -232.14 -317.871C-236.605 -325.197 -240.955 -332.867 -245.477 -340.537C-254.577 -355.933 -278.044 -344.486 -271.519 -327.887C-258.927 -295.548 -252.917 -262.007 -261.732 -228.81C-267.627 -206.717 -279.59 -182.105 -267.513 -162.701C-261.045 -152.341 -249.197 -146.732 -237.75 -142.439C-191.617 -125.039 -141.248 -118.915 -92.3104 -124.753C-61.6886 -128.416 -29.0635 -136.372 -1.24631 -123.036C19.9314 -112.905 33.7827 -92.2998 47.4624 -73.2399C70.1282 -41.7596 95.5415 -11.7101 125.934 12.6156C140.53 24.2919 156.728 36.14 174.3 42.7794C191.242 49.1328 200.915 57.6039 214.365 70.3105C279.902 132.184 343.206 196.404 404.221 262.799C424.368 284.72 444.229 306.814 463.804 329.193C470.043 336.291 476.225 343.388 482.349 350.486C488.016 357.011 498.776 352.088 497.402 343.56C497.402 343.503 497.402 343.445 497.402 343.331Z" fill="#80B7D4"/>
</g>
</g>
<defs>
<clipPath id="clip0_1560_129935">
<rect width="428" height="332" fill="white"/>
</clipPath>
</defs>
</svg>
