<svg width="277" height="49" viewBox="0 0 277 49" fill="none" xmlns="http://www.w3.org/2000/svg">
<path id="Vector 76" d="M1.72803 37.7135C0.811402 38.3298 0.56796 39.5725 1.18429 40.4892C1.80062 41.4058 3.04333 41.6492 3.95996 41.0329L1.72803 37.7135ZM154.612 34.6565L155.843 36.2326L154.612 34.6565ZM271.6 1.51578C271.333 0.444086 270.247 -0.207859 269.176 0.0596176L251.711 4.41842C250.64 4.6859 249.988 5.77151 250.255 6.8432C250.523 7.9149 251.608 8.56685 252.68 8.29937L268.204 4.42488L272.078 19.9487C272.346 21.0204 273.431 21.6723 274.503 21.4048C275.575 21.1374 276.227 20.0517 275.959 18.9801L271.6 1.51578ZM3.95996 41.0329C31.2246 22.7006 74.3011 17.0962 107.975 18.3754C124.796 19.0144 139.017 21.3633 147.553 24.5599C149.675 25.3546 151.39 26.1817 152.685 27.0136C153.999 27.8574 154.763 28.6312 155.139 29.2697C155.473 29.8381 155.504 30.2877 155.348 30.7535C155.162 31.3096 154.63 32.1051 153.381 33.0803L155.843 36.2326C157.421 35.0001 158.611 33.6088 159.141 32.0231C159.702 30.3472 159.445 28.7002 158.586 27.2412C157.769 25.8525 156.436 24.6684 154.847 23.6479C153.239 22.6155 151.246 21.6719 148.956 20.814C139.839 17.3996 125.127 15.0241 108.127 14.3783C74.1599 13.0879 30.0464 18.6726 1.72803 37.7135L3.95996 41.0329ZM153.381 33.0803C151.824 34.2962 150.632 35.5836 149.97 36.964C149.272 38.4169 149.176 39.9616 149.829 41.4139C150.441 42.777 151.604 43.8136 152.932 44.6059C154.277 45.4087 155.955 46.0592 157.859 46.5802C165.421 48.6494 177.801 49.0062 191.725 47.1413C219.526 43.4176 254.792 30.6421 271.375 3.02975L267.945 0.97043C252.313 27.0018 218.593 39.5069 191.194 43.1767C177.517 45.0085 165.742 44.5901 158.915 42.722C157.222 42.2588 155.914 41.7272 154.981 41.1709C154.031 40.604 153.625 40.1043 153.477 39.7743C153.369 39.5336 153.32 39.2285 153.576 38.6953C153.866 38.0897 154.535 37.2548 155.843 36.2326L153.381 33.0803Z" fill="#7EE7FC"/>
</svg>
