<svg width="16" height="16" viewBox="0 0 16 16" fill="none" xmlns="http://www.w3.org/2000/svg">
<path d="M4.86523 2.26074H9.30273C10.7029 2.26074 11.4029 2.26074 11.9377 2.53323C12.4081 2.77291 12.7906 3.15536 13.0303 3.62577C13.3027 4.16055 13.3027 4.86061 13.3027 6.26074V10.6982M4.05273 13.5107H9.11523C9.8153 13.5107 10.1653 13.5107 10.4327 13.3745C10.6679 13.2547 10.8592 13.0634 10.979 12.8282C11.1152 12.5608 11.1152 12.2108 11.1152 11.5107V6.44824C11.1152 5.74818 11.1152 5.39814 10.979 5.13075C10.8592 4.89555 10.6679 4.70433 10.4327 4.58448C10.1653 4.44824 9.8153 4.44824 9.11523 4.44824H4.05273C3.35267 4.44824 3.00264 4.44824 2.73525 4.58448C2.50004 4.70433 2.30882 4.89555 2.18898 5.13075C2.05273 5.39814 2.05273 5.74818 2.05273 6.44824V11.5107C2.05273 12.2108 2.05273 12.5608 2.18898 12.8282C2.30882 13.0634 2.50004 13.2547 2.73525 13.3745C3.00264 13.5107 3.35267 13.5107 4.05273 13.5107Z" stroke="#333333" stroke-width="1.25" stroke-linecap="round" stroke-linejoin="round"/>
</svg>
