<svg width="32" height="32" viewBox="0 0 32 32" fill="none" xmlns="http://www.w3.org/2000/svg">
<path d="M16.0364 0H15.9636C7.14713 0 0 7.14713 0 15.9636V16.0364C0 24.8529 7.14713 32 15.9636 32H16.0364C24.8529 32 32 24.8529 32 16.0364V15.9636C32 7.14713 24.8529 0 16.0364 0Z" fill="url(#paint0_linear_441_21060)"/>
<path d="M23.9556 12.7114C23.9466 12.0382 23.8206 11.3717 23.5831 10.7417C23.3772 10.2103 23.0627 9.72762 22.6597 9.32463C22.2567 8.92164 21.7741 8.60714 21.2427 8.40123C20.6207 8.16777 19.9637 8.04153 19.2996 8.02789C18.4444 7.98967 18.1733 7.979 16.0027 7.979C13.832 7.979 13.5538 7.979 12.7049 8.02789C12.041 8.04163 11.3843 8.16786 10.7627 8.40123C10.2312 8.60699 9.74846 8.92144 9.34545 9.32446C8.94244 9.72747 8.62799 10.2102 8.42222 10.7417C8.18829 11.3631 8.06233 12.02 8.04978 12.6839C8.01156 13.5399 8 13.811 8 15.9817C8 18.1523 8 18.4297 8.04978 19.2794C8.06311 19.9443 8.18844 20.6003 8.42222 21.2234C8.62834 21.7548 8.94302 22.2373 9.34617 22.6401C9.74931 23.043 10.2321 23.3573 10.7636 23.563C11.3835 23.8058 12.0403 23.9411 12.7058 23.963C13.5618 24.0012 13.8329 24.0128 16.0036 24.0128C18.1742 24.0128 18.4524 24.0128 19.3013 23.963C19.9655 23.9499 20.6225 23.824 21.2444 23.5906C21.7757 23.3844 22.2582 23.0698 22.6612 22.6669C23.0642 22.2639 23.3787 21.7814 23.5849 21.2501C23.8187 20.6279 23.944 19.9719 23.9573 19.3061C23.9956 18.451 24.0071 18.1799 24.0071 16.0083C24.0053 13.8377 24.0053 13.5621 23.9556 12.7114ZM15.9973 20.0866C13.7271 20.0866 11.888 18.2474 11.888 15.9772C11.888 13.707 13.7271 11.8679 15.9973 11.8679C17.0872 11.8679 18.1324 12.3008 18.9031 13.0715C19.6737 13.8421 20.1067 14.8874 20.1067 15.9772C20.1067 17.0671 19.6737 18.1123 18.9031 18.883C18.1324 19.6536 17.0872 20.0866 15.9973 20.0866ZM20.2702 12.6741C20.1444 12.6742 20.0197 12.6495 19.9034 12.6014C19.7871 12.5533 19.6814 12.4827 19.5924 12.3937C19.5034 12.3047 19.4328 12.199 19.3847 12.0827C19.3366 11.9664 19.3119 11.8418 19.312 11.7159C19.312 11.5901 19.3368 11.4656 19.3849 11.3494C19.433 11.2332 19.5036 11.1276 19.5925 11.0386C19.6815 10.9497 19.7871 10.8792 19.9033 10.831C20.0195 10.7829 20.144 10.7581 20.2698 10.7581C20.3956 10.7581 20.5201 10.7829 20.6363 10.831C20.7525 10.8792 20.8581 10.9497 20.947 11.0386C21.036 11.1276 21.1065 11.2332 21.1547 11.3494C21.2028 11.4656 21.2276 11.5901 21.2276 11.7159C21.2276 12.2457 20.7991 12.6741 20.2702 12.6741Z" fill="white"/>
<path d="M15.9896 18.6458C17.4639 18.6458 18.659 17.4507 18.659 15.9765C18.659 14.5022 17.4639 13.3071 15.9896 13.3071C14.5154 13.3071 13.3203 14.5022 13.3203 15.9765C13.3203 17.4507 14.5154 18.6458 15.9896 18.6458Z" fill="white"/>
<defs>
<linearGradient id="paint0_linear_441_21060" x1="4.67505" y1="27.3249" x2="27.3249" y2="4.67617" gradientUnits="userSpaceOnUse">
<stop stop-color="#FAAD4F"/>
<stop offset="0.35" stop-color="#DD2A7B"/>
<stop offset="0.62" stop-color="#9537B0"/>
<stop offset="1" stop-color="#515BD4"/>
</linearGradient>
</defs>
</svg>
