<svg width="32" height="32" viewBox="0 0 32 32" fill="none" xmlns="http://www.w3.org/2000/svg">
<circle cx="16" cy="16" r="15.3333" stroke="#333333" stroke-opacity="0.65" stroke-width="1.33333"/>
<path d="M23.9556 12.7116C23.9466 12.0383 23.8206 11.3718 23.5831 10.7418C23.3772 10.2104 23.0627 9.72775 22.6597 9.32475C22.2567 8.92176 21.7741 8.60726 21.2427 8.40135C20.6207 8.16789 19.9637 8.04165 19.2996 8.02801C18.4444 7.98979 18.1733 7.97913 16.0027 7.97913C13.832 7.97913 13.5538 7.97913 12.7049 8.02801C12.041 8.04175 11.3843 8.16799 10.7627 8.40135C10.2312 8.60712 9.74846 8.92157 9.34545 9.32458C8.94244 9.72759 8.62799 10.2103 8.42222 10.7418C8.18829 11.3632 8.06233 12.0201 8.04978 12.684C8.01156 13.54 8 13.8111 8 15.9818C8 18.1525 8 18.4298 8.04978 19.2796C8.06311 19.9445 8.18844 20.6005 8.42222 21.2236C8.62834 21.7549 8.94302 22.2374 9.34617 22.6403C9.74931 23.0431 10.2321 23.3574 10.7636 23.5631C11.3835 23.806 12.0403 23.9412 12.7058 23.9631C13.5618 24.0013 13.8329 24.0129 16.0036 24.0129C18.1742 24.0129 18.4524 24.0129 19.3013 23.9631C19.9655 23.95 20.6225 23.8241 21.2444 23.5907C21.7757 23.3845 22.2582 23.0699 22.6612 22.667C23.0642 22.264 23.3787 21.7815 23.5849 21.2502C23.8187 20.628 23.944 19.972 23.9573 19.3062C23.9956 18.4511 24.0071 18.18 24.0071 16.0085C24.0053 13.8378 24.0053 13.5622 23.9556 12.7116ZM15.9973 20.0867C13.7271 20.0867 11.888 18.2476 11.888 15.9773C11.888 13.7071 13.7271 11.868 15.9973 11.868C17.0872 11.868 18.1324 12.301 18.9031 13.0716C19.6737 13.8423 20.1067 14.8875 20.1067 15.9773C20.1067 17.0672 19.6737 18.1124 18.9031 18.8831C18.1324 19.6537 17.0872 20.0867 15.9973 20.0867ZM20.2702 12.6742C20.1444 12.6744 20.0197 12.6496 19.9034 12.6015C19.7871 12.5534 19.6814 12.4828 19.5924 12.3938C19.5034 12.3048 19.4328 12.1992 19.3847 12.0828C19.3366 11.9665 19.3119 11.8419 19.312 11.716C19.312 11.5902 19.3368 11.4657 19.3849 11.3495C19.433 11.2333 19.5036 11.1277 19.5925 11.0388C19.6815 10.9498 19.7871 10.8793 19.9033 10.8311C20.0195 10.783 20.144 10.7582 20.2698 10.7582C20.3956 10.7582 20.5201 10.783 20.6363 10.8311C20.7525 10.8793 20.8581 10.9498 20.947 11.0388C21.036 11.1277 21.1065 11.2333 21.1547 11.3495C21.2028 11.4657 21.2276 11.5902 21.2276 11.716C21.2276 12.2458 20.7991 12.6742 20.2702 12.6742Z" fill="#333333" fill-opacity="0.65"/>
<path d="M15.9896 18.6459C17.4639 18.6459 18.659 17.4508 18.659 15.9766C18.659 14.5024 17.4639 13.3073 15.9896 13.3073C14.5154 13.3073 13.3203 14.5024 13.3203 15.9766C13.3203 17.4508 14.5154 18.6459 15.9896 18.6459Z" fill="#333333" fill-opacity="0.65"/>
</svg>
