<svg width="32" height="32" viewBox="0 0 32 32" fill="none" xmlns="http://www.w3.org/2000/svg">
<circle cx="16" cy="16" r="16" fill="#007EBB"/>
<path d="M12.0681 10.5573C12.0679 10.9699 11.9039 11.3654 11.612 11.657C11.3201 11.9486 10.9244 12.1123 10.5118 12.1121C10.0993 12.1119 9.70367 11.9478 9.41209 11.6559C9.12052 11.3641 8.95683 10.9683 8.95703 10.5558C8.95724 10.1432 9.12132 9.74762 9.41319 9.45604C9.70506 9.16446 10.1008 9.00077 10.5134 9.00098C10.9259 9.00118 11.3215 9.16527 11.6131 9.45714C11.9047 9.74901 12.0683 10.1448 12.0681 10.5573ZM12.1148 13.264H9.0037V23.0018H12.1148V13.264ZM17.0304 13.264H13.9348V23.0018H16.9993V17.8918C16.9993 15.0451 20.7093 14.7806 20.7093 17.8918V23.0018H23.7815V16.834C23.7815 12.0351 18.2904 12.214 16.9993 14.5706L17.0304 13.264Z" fill="white"/>
</svg>
