<svg width="16" height="16" viewBox="0 0 16 16" fill="none" xmlns="http://www.w3.org/2000/svg">
<path d="M13.3027 6.01074L13.3027 2.26074M13.3027 2.26074H9.55273M13.3027 2.26074L8.30273 7.26074M6.42773 3.51074H5.05273C4.00264 3.51074 3.47759 3.51074 3.0765 3.7151C2.7237 3.89487 2.43686 4.18171 2.2571 4.53451C2.05273 4.93559 2.05273 5.46064 2.05273 6.51074V10.5107C2.05273 11.5608 2.05273 12.0859 2.2571 12.487C2.43686 12.8398 2.7237 13.1266 3.0765 13.3064C3.47759 13.5107 4.00264 13.5107 5.05273 13.5107H9.05273C10.1028 13.5107 10.6279 13.5107 11.029 13.3064C11.3818 13.1266 11.6686 12.8398 11.8484 12.487C12.0527 12.0859 12.0527 11.5608 12.0527 10.5107V9.13574" stroke="#333333" stroke-width="1.25" stroke-linecap="round" stroke-linejoin="round"/>
</svg>
