<svg width="32" height="32" viewBox="0 0 32 32" fill="none" xmlns="http://www.w3.org/2000/svg">
<circle cx="16" cy="16" r="15.3333" stroke="#333333" stroke-opacity="0.65" stroke-width="1.33333"/>
<path d="M20.0871 10.5063C19.4796 9.81255 19.1448 8.92177 19.1449 7.99963H16.3982V19.0219C16.3774 19.6185 16.1258 20.1837 15.6962 20.5983C15.2667 21.0129 14.6929 21.2444 14.096 21.2441C12.8337 21.2441 11.7849 20.213 11.7849 18.933C11.7849 17.4041 13.2604 16.2574 14.7804 16.7285V13.9196C11.7137 13.5107 9.0293 15.893 9.0293 18.933C9.0293 21.893 11.4826 23.9996 14.0871 23.9996C16.8782 23.9996 19.1449 21.733 19.1449 18.933V13.3419C20.2586 14.1417 21.5958 14.5709 22.9671 14.5685V11.8219C22.9671 11.8219 21.296 11.9019 20.0871 10.5063Z" fill="#333333" fill-opacity="0.65"/>
</svg>
