<svg width="32" height="32" viewBox="0 0 32 32" fill="none" xmlns="http://www.w3.org/2000/svg">
<circle cx="16" cy="16" r="16" fill="#383D38"/>
<path d="M20.0871 10.5062C19.4796 9.81242 19.1448 8.92164 19.1449 7.99951H16.3982V19.0217C16.3774 19.6183 16.1258 20.1836 15.6962 20.5982C15.2667 21.0128 14.6929 21.2443 14.096 21.244C12.8337 21.244 11.7849 20.2128 11.7849 18.9328C11.7849 17.404 13.2604 16.2573 14.7804 16.7284V13.9195C11.7137 13.5106 9.0293 15.8928 9.0293 18.9328C9.0293 21.8928 11.4826 23.9995 14.0871 23.9995C16.8782 23.9995 19.1449 21.7328 19.1449 18.9328V13.3417C20.2586 14.1416 21.5958 14.5708 22.9671 14.5684V11.8217C22.9671 11.8217 21.296 11.9017 20.0871 10.5062Z" fill="white"/>
</svg>
