<svg width="207" height="96" viewBox="0 0 207 96" fill="none" xmlns="http://www.w3.org/2000/svg">
<path d="M199.337 94.9644C199.337 95.1468 199.26 95.2428 199.107 95.262C198.953 95.2812 198.569 95.2908 197.964 95.2908C197.359 95.2908 196.946 95.2716 196.793 95.2428C196.639 95.214 196.562 95.0892 196.562 94.8684C196.562 94.638 196.562 94.2923 196.582 93.8219C196.591 93.361 196.601 93.0154 196.601 92.7754C196.601 91.8825 196.591 91.2584 196.572 90.884C196.543 90.2791 196.255 89.9815 195.698 89.9815C195.458 89.9815 195.218 90.0775 194.978 90.2791C194.738 90.4807 194.604 90.7015 194.585 90.9416C194.565 91.1528 194.556 91.7768 194.556 92.8138C194.556 93.0538 194.556 93.409 194.575 93.8987C194.594 94.3787 194.594 94.7436 194.594 94.9836C194.594 95.1468 194.517 95.2332 194.373 95.2332H192.04C191.896 95.2332 191.829 95.1276 191.829 94.926C191.829 94.686 191.829 94.3307 191.848 93.8507C191.868 93.3706 191.868 93.0154 191.868 92.7754C191.868 92.5929 191.868 92.3049 191.848 91.9209C191.839 91.5368 191.829 91.2584 191.829 91.0568C191.829 90.3271 191.551 89.9718 190.984 89.9718C190.754 89.9718 190.514 90.0583 190.255 90.2311C189.967 90.4135 189.823 90.6151 189.823 90.8263C189.823 91.2872 189.823 91.9785 189.823 92.8906C189.823 93.8027 189.823 94.4939 189.823 94.9548C189.823 95.0796 189.803 95.1564 189.775 95.1852C189.746 95.214 189.659 95.2332 189.534 95.2524C189.304 95.2716 188.939 95.2812 188.44 95.2812C188.114 95.2812 187.749 95.262 187.336 95.2332C187.211 95.2236 187.144 95.2044 187.115 95.1852C187.096 95.166 187.077 95.0892 187.077 94.9548C187.077 94.5515 187.077 93.9467 187.077 93.1306C187.077 92.3241 187.077 91.7192 187.077 91.316C187.077 90.4903 187.009 89.5494 186.894 88.5125C186.885 88.4549 186.875 88.4069 186.875 88.3781C186.875 88.2917 186.913 88.2341 186.981 88.2052C187.096 88.1572 187.307 88.1284 187.624 88.09C188.008 88.0516 188.238 88.0324 188.306 88.0228C188.354 88.0132 188.565 87.9556 188.92 87.8596C189.17 87.7924 189.371 87.754 189.525 87.754C189.621 87.754 189.669 87.9268 189.678 88.2821C189.678 88.6373 189.707 88.8101 189.746 88.8101C189.794 88.7909 189.851 88.7525 189.928 88.7045C190.389 88.3493 190.754 88.1092 191.023 87.9748C191.426 87.7924 191.848 87.6964 192.309 87.6964C192.77 87.6964 193.202 87.802 193.577 88.0036C193.989 88.2341 194.258 88.5701 194.383 88.9829C194.652 88.6181 195.026 88.3109 195.506 88.0612C195.977 87.8116 196.447 87.6868 196.898 87.6868C197.571 87.6868 198.127 87.8404 198.55 88.1572C199.03 88.5029 199.28 89.0021 199.28 89.655C199.28 89.9238 199.28 90.3271 199.26 90.8647C199.241 91.4024 199.241 91.8056 199.241 92.0745C199.241 92.3913 199.241 92.8714 199.26 93.5146C199.28 94.1579 199.28 94.638 199.28 94.9548L199.337 94.9644Z" fill="#292929"/>
<path d="M183.449 91.4985C183.449 92.6603 183.094 93.5916 182.373 94.3116C181.663 95.0317 180.712 95.387 179.551 95.387C178.389 95.387 177.486 95.0317 176.766 94.3212C176.037 93.6108 175.672 92.6987 175.672 91.5849C175.672 90.4136 176.018 89.4535 176.718 88.7238C177.419 87.9941 178.36 87.6293 179.551 87.6293C180.741 87.6293 181.653 87.9845 182.373 88.7046C183.094 89.4247 183.449 90.356 183.449 91.4985ZM180.924 91.4985C180.924 91.0953 180.799 90.7496 180.54 90.4424C180.29 90.1352 179.964 89.9816 179.56 89.9816C179.157 89.9816 178.821 90.1352 178.552 90.452C178.303 90.7496 178.187 91.0953 178.187 91.4985C178.187 91.9018 178.312 92.257 178.552 92.5546C178.821 92.8715 179.147 93.0251 179.56 93.0251C179.973 93.0251 180.29 92.8715 180.549 92.5546C180.789 92.257 180.914 91.9114 180.914 91.4985H180.924Z" fill="#292929"/>
<path d="M169.861 90.2403C169.861 90.2403 169.698 90.2019 169.391 90.1155C169.083 90.0291 168.834 89.9906 168.651 89.9906C168.191 89.9906 167.826 90.1251 167.557 90.3939C167.288 90.6627 167.144 91.0276 167.144 91.4788C167.144 91.9301 167.288 92.3141 167.586 92.5733C167.883 92.8422 168.267 92.9766 168.747 92.9766C168.978 92.9766 169.227 92.919 169.506 92.8038C169.784 92.6885 169.919 92.6309 169.909 92.6309C169.996 92.6309 170.111 92.9478 170.245 93.591C170.36 94.1767 170.428 94.5704 170.428 94.7624C170.428 94.9544 170.111 95.1176 169.467 95.2616C168.978 95.3672 168.575 95.4248 168.277 95.4248C167.144 95.4248 166.213 95.0504 165.483 94.3015C164.744 93.5526 164.379 92.6117 164.379 91.498C164.379 90.3843 164.744 89.453 165.483 88.6945C166.222 87.936 167.154 87.5616 168.277 87.5616C169.035 87.5616 169.707 87.7248 170.293 88.0512C170.428 88.1184 170.495 88.1856 170.495 88.2529C170.495 88.3201 170.418 88.6177 170.264 89.1458C170.12 89.6546 170.024 89.9714 169.986 90.0675C169.938 90.1731 169.9 90.2307 169.852 90.2307L169.861 90.2403Z" fill="#292929"/>
<path d="M156.737 93.5815C156.737 94.0808 156.564 94.5128 156.209 94.8681C155.863 95.2233 155.431 95.3961 154.922 95.3961C154.413 95.3961 153.991 95.2137 153.645 94.8585C153.3 94.5033 153.117 94.0712 153.117 93.5815C153.117 93.0919 153.29 92.6598 153.645 92.3046C153.991 91.9494 154.423 91.7765 154.922 91.7765C155.421 91.7765 155.853 91.959 156.209 92.3046C156.564 92.6598 156.737 93.0823 156.737 93.5815Z" fill="#292929"/>
<path d="M86.7552 43.1185C86.7552 43.4641 86.5151 43.6946 86.0447 43.829C85.4782 43.9826 83.7116 44.0594 80.7449 44.0594C78.0278 44.0594 76.2804 43.9826 75.5027 43.829C74.8595 43.6946 74.4466 43.2721 74.2738 42.5424C73.6305 39.8061 73.1217 38.3468 72.7664 38.1548C72.4592 38.0203 69.9149 37.9531 65.1336 37.9531C61.898 37.9531 60.1794 38.0395 59.9778 38.2124C59.6514 38.5196 59.2961 39.5373 58.8929 41.2655C58.528 42.8401 58.096 43.6946 57.5775 43.829C56.9343 43.9826 54.7644 44.0594 51.0776 44.0594C48.1685 44.0594 46.7188 43.781 46.7188 43.2337C46.7188 42.7345 48.8694 36.6762 53.1611 25.0301C57.8176 12.4335 60.3426 5.51115 60.7363 4.25341C60.9667 3.53333 61.2355 3.16849 61.5332 3.16849C62.0516 3.16849 62.8389 3.2165 63.9143 3.31251C64.9896 3.40852 65.7865 3.45652 66.3241 3.45652C66.8618 3.45652 67.5915 3.42772 68.59 3.36052C69.5885 3.29331 70.3374 3.2645 70.827 3.2645C71.1919 3.2645 71.5183 3.58134 71.8255 4.20541C72.7568 6.20243 75.4739 13.0384 79.9768 24.7229C84.4989 36.4842 86.7648 42.6192 86.7648 43.1281L86.7552 43.1185ZM66.5545 17.1572C66.1609 17.9925 65.4792 19.8071 64.5287 22.601C63.5014 25.5678 62.9925 27.3056 62.9925 27.8144C62.9925 28.1601 63.559 28.3425 64.7015 28.3809C65.2872 28.4193 66.2569 28.4385 67.6107 28.4385C68.8684 28.4385 69.5597 28.2849 69.6941 27.9776C69.7325 27.8816 69.7517 27.7472 69.7517 27.584C69.7517 26.9599 69.31 25.2317 68.4363 22.3994C67.5818 19.6631 66.9578 17.9157 66.5545 17.1572Z" fill="#292929"/>
<path d="M140.897 42.2255C140.897 43.032 140.532 43.5792 139.841 43.8288C139.265 44.0113 137.776 44.1169 135.347 44.1169C132.918 44.1169 131.305 44.0113 130.201 43.8288C129.702 43.7232 129.356 43.6272 129.193 43.5216C129.03 43.416 128.828 43.1376 128.579 42.7151C127.196 40.1612 125.804 37.6266 124.441 35.0727C122.194 30.973 120.821 28.7072 120.398 28.2943C119.016 28.7936 118.094 29.1968 117.643 29.5137C117.662 30.2529 117.662 30.877 117.662 31.4147C117.662 32.0099 117.413 32.346 116.894 32.4228C115.905 32.5668 114.119 32.634 111.537 32.634C108.954 32.634 107.437 32.5668 106.64 32.4228C106.083 32.298 105.814 32.0099 105.814 31.5395C105.814 30.5122 105.834 29.216 105.882 27.6703V7.99768C105.843 6.61513 105.824 5.4246 105.824 4.45489C105.824 4.04205 106.045 3.83082 106.439 3.83082C107.015 3.83082 107.907 3.86923 109.098 3.91723C110.289 3.96524 111.162 4.00364 111.758 4.00364C112.353 4.00364 113.265 3.96524 114.475 3.91723C115.665 3.85963 116.558 3.83082 117.153 3.83082C117.48 3.83082 117.643 4.01324 117.643 4.34928C117.643 5.75104 117.576 7.87287 117.432 10.7148C117.288 13.5567 117.211 15.6785 117.211 17.0803C117.211 18.7125 117.662 19.5286 118.545 19.5286C120.811 19.5286 122.578 18.9141 123.816 17.6756C124.748 16.7731 125.689 15.1025 126.639 12.6926C127.254 10.8588 128.262 8.1417 129.644 4.5509C129.846 4.06125 130.268 3.83082 130.921 3.83082C131.411 3.83082 132.16 3.86923 133.149 3.91723C134.157 3.96524 134.896 4.00364 135.395 4.00364C135.895 4.00364 136.672 3.98444 137.68 3.94604C138.708 3.90763 139.466 3.87883 139.946 3.87883C140.426 3.87883 140.628 4.10925 140.628 4.5413C140.628 5.16537 140.234 6.70154 139.437 9.13061C137.085 16.3026 134.368 20.7959 131.315 22.5817C130.691 22.9465 130.384 23.2442 130.384 23.465C130.403 23.465 132.15 26.3261 135.635 32.0195C139.14 37.7322 140.906 41.1405 140.906 42.2159H140.916L140.897 42.2255Z" fill="#292929"/>
<path d="M51.5481 18.434C51.5481 18.4916 49.7815 22.3225 46.2483 29.9169C42.6575 37.665 40.6029 42.0238 40.094 43.0031C39.9212 43.3488 39.8156 43.5312 39.7772 43.5696C39.7004 43.6656 39.518 43.752 39.2299 43.8288C38.7595 43.9441 37.4057 44.0017 35.1879 44.0017C33.1141 44.0017 31.8467 43.9441 31.3955 43.8288C31.0114 43.7328 30.781 43.656 30.7138 43.5984C30.637 43.5408 30.5122 43.3584 30.3394 43.0608C30.2241 42.8495 29.6865 41.515 28.7168 39.0475L25.606 31.1266L22.4473 39.1339C22.1208 40.046 21.5928 41.3518 20.8535 43.0704C20.6615 43.3968 20.5271 43.5888 20.4599 43.656C20.383 43.7232 20.1622 43.7808 19.807 43.8384C19.1637 43.9536 17.9156 44.0113 16.0722 44.0113C13.7871 44.0113 12.4238 43.9536 11.9725 43.8384C11.6461 43.7616 11.3869 43.4928 11.1756 43.0127C3.72521 27.7183 0 19.5286 0 18.4532C0 16.9363 0.0480088 14.6608 0.15362 11.6269C0.259232 8.59295 0.307241 9.87949 0.307241 8.36252C0.307241 7.73845 0.499259 7.42162 0.8737 7.42162C1.95862 7.42162 3.5908 7.46962 5.78944 7.56563C7.98808 7.66164 9.62986 7.70965 10.734 7.70965C11.1756 7.70965 11.3869 7.89207 11.3869 8.24731C11.3869 9.76428 11.3196 8.49694 11.1756 11.5693C11.0316 14.6416 10.9548 16.9363 10.9548 18.4532C10.9548 19.0197 11.6461 20.8343 13.0382 23.897C14.296 26.6333 15.1985 28.4863 15.7745 29.4561C16.053 29.9553 16.245 30.1953 16.341 30.1953C16.4946 30.1953 16.8883 29.2832 17.5123 27.459C19.2981 22.3513 20.2102 19.3269 20.2486 18.3956C20.3254 16.6482 20.335 14.4304 20.2774 11.7229C20.2198 7.82486 20.191 5.59742 20.191 5.03095C20.191 4.66611 20.2198 4.45489 20.2774 4.38768C20.335 4.32048 20.5463 4.25327 20.9015 4.20526C21.8712 4.09005 23.5418 4.03244 25.9133 4.03244C29.5425 4.03244 31.3571 4.29167 31.3571 4.80053C31.3571 6.06787 31.3091 8.04569 31.213 10.734C31.117 13.3359 31.0882 15.3137 31.0978 16.6674V18.1172C31.0978 19.0869 32.0771 22.1784 34.0358 27.3822C34.6982 29.1872 35.1015 30.0897 35.2359 30.0897C35.3319 30.0897 35.5143 29.8401 35.8023 29.3504C36.3304 28.4191 37.1849 26.5757 38.3658 23.8202C39.6716 20.8151 40.334 19.0293 40.334 18.4628C40.334 16.9267 40.2668 14.6224 40.1228 11.5501C39.9788 8.47773 39.9116 2.31385 39.9116 0.796886C39.9116 0.451248 40.1324 0.288031 40.5645 0.288031C41.6878 0.288031 43.3776 0.240024 45.6242 0.144014C47.8709 0.0480031 49.5607 0 50.684 0C51.0488 0 51.2217 0.384041 51.2217 1.14252C51.2217 2.64989 51.2697 8.76577 51.3753 11.7613C51.4809 14.7472 51.5289 16.9939 51.5289 18.4724H51.5385L51.5481 18.434Z" fill="#292929"/>
<path d="M115.847 44.3088C114.215 44.3088 112.084 44.2704 109.462 44.1936C106.044 44.1168 103.913 44.0688 103.078 44.0495L94.552 43.9343C93.6975 43.9535 92.4686 43.9151 90.8748 43.8191C90.3275 43.7231 90.0491 43.4255 90.0491 42.9358C90.0491 40.862 90.0875 37.7609 90.1451 33.6324C90.2123 29.5039 90.2411 26.3932 90.2411 24.329C90.2411 22.1303 90.1739 18.8276 90.0395 14.4303C89.9051 10.033 89.8379 6.73023 89.8379 4.53158C89.8379 4.11874 90.1163 3.90752 90.6924 3.90752C91.2684 3.90752 92.1133 3.93632 93.2463 3.99393C94.3792 4.05153 95.2145 4.08034 95.7713 4.08034C96.3954 4.08034 97.3267 4.05153 98.5653 3.98432C99.8038 3.91712 100.735 3.88831 101.359 3.88831C101.638 3.88831 101.772 4.07073 101.753 4.42597L101.724 4.80041C101.494 8.37201 101.244 13.739 100.956 20.9014L100.927 28.419C100.927 30.8481 100.937 32.6243 100.956 33.7476C100.975 33.978 100.994 34.2085 101.014 34.4293C101.033 34.6597 101.177 34.8037 101.446 34.8613H102.185C103.894 34.8613 106.457 34.7749 109.866 34.5925C113.274 34.4101 115.838 34.3237 117.547 34.3237C118.065 34.3237 118.315 34.5445 118.315 34.9765C118.315 38.2217 118.075 41.0252 117.604 43.3871C117.508 43.8863 117.307 44.1744 117.009 44.2704C116.913 44.3088 116.529 44.328 115.838 44.328L115.847 44.3088Z" fill="#292929"/>
<path d="M162.123 36.6572C162.123 37.0604 162.075 37.6845 161.97 38.5102C161.874 39.3359 161.816 39.9407 161.816 40.3248C161.816 40.7088 161.778 40.9584 161.691 41.0641C161.614 41.1697 161.384 41.3329 161.019 41.5345C159.272 42.4946 157.332 42.9747 155.21 42.9747C151.293 42.9747 149.344 41.4769 149.344 38.4814C149.344 37.5885 149.383 36.2443 149.44 34.4489C149.507 32.6535 149.536 31.3094 149.536 30.4165C149.536 29.8212 149.191 29.5236 148.499 29.5236H148.24C148.115 29.5428 148.029 29.5428 147.981 29.5428C147.462 29.5428 147.203 29.3604 147.203 28.9955C147.203 28.7843 147.222 28.4483 147.251 28.0066C147.29 27.565 147.299 27.2289 147.299 27.0081C147.299 26.7297 147.28 26.288 147.251 25.712C147.213 25.1263 147.203 24.6942 147.203 24.4062C147.203 24.1182 147.635 23.9838 148.509 23.9646C148.999 23.9454 149.258 23.8206 149.306 23.5613C149.383 23.0525 149.411 22.2364 149.383 21.1227C149.325 19.3753 149.306 18.54 149.306 18.6264C149.306 17.0614 149.45 16.2741 149.747 16.2741C150.112 16.2741 150.631 16.3605 151.312 16.5237C152.08 16.6966 152.618 16.8022 152.916 16.831C153.607 16.927 154.644 17.0518 156.046 17.215C156.382 17.2438 156.555 17.359 156.555 17.5607C156.555 18.1079 156.507 18.924 156.42 20.0185C156.334 21.1131 156.286 21.9387 156.286 22.4956C156.286 23.1581 156.478 23.4845 156.881 23.4845C157.351 23.4845 158.072 23.4653 159.032 23.4269C159.992 23.3885 160.721 23.3597 161.201 23.3597C161.499 23.3597 161.643 23.4557 161.643 23.6669C161.643 23.9838 161.605 24.4446 161.547 25.0687C161.48 25.6928 161.441 26.1632 161.441 26.4704C161.441 26.7777 161.442 27.2673 161.461 27.8914C161.47 28.5155 161.48 28.9859 161.48 29.3124C161.48 29.5908 161.288 29.7444 160.894 29.7444C160.625 29.7444 160.165 29.7348 159.531 29.7156C158.897 29.6964 158.446 29.6868 158.168 29.6868H156.651C156.449 29.6868 156.343 29.9844 156.343 30.5797V32.0199C156.363 32.6727 156.363 33.1528 156.363 33.46C156.363 34.6025 156.487 35.3802 156.747 35.8219C157.111 36.4075 157.831 36.6956 158.897 36.6956C159.233 36.6956 159.723 36.6188 160.347 36.4651C160.971 36.3115 161.422 36.2347 161.672 36.2347C161.95 36.2347 162.104 36.3787 162.104 36.6764L162.123 36.6572Z" fill="#292929"/>
<path d="M184.522 27.882L184.484 41.8995C184.484 42.37 184.292 42.6388 183.917 42.6964C183.485 42.7444 182.496 42.7828 180.951 42.7828C179.405 42.7828 178.426 42.7252 177.84 42.6196C177.398 42.5332 177.168 42.2451 177.168 41.7459C177.168 40.5842 177.187 38.8272 177.235 36.4845C177.273 34.1418 177.302 32.3848 177.302 31.2231C177.302 29.6389 176.496 28.8421 174.883 28.8421C174.345 28.8421 173.702 29.0533 172.972 29.4949C172.175 29.9654 171.772 30.4646 171.772 30.9831V36.0044C171.772 36.6573 171.782 37.6366 171.81 38.9424C171.839 40.2481 171.849 41.2274 171.849 41.8803C171.849 42.3795 171.638 42.658 171.225 42.7156C170.802 42.7636 169.631 42.802 167.692 42.802C166.578 42.802 165.781 42.7444 165.301 42.6388C164.811 42.5332 164.571 42.2931 164.571 41.9283C164.571 40.853 164.571 39.2496 164.59 37.1086C164.61 34.9579 164.61 33.3546 164.61 32.2888C164.61 27.8627 164.562 24.1951 164.466 21.3052C164.427 20.2875 164.389 19.2698 164.37 18.2617C164.302 17.0808 164.178 16.0726 164.005 15.2374C163.966 15.0645 163.938 14.9301 163.938 14.8533C163.938 14.6517 164.043 14.5173 164.245 14.4501C164.658 14.3253 165.282 14.2484 166.088 14.2292C167.173 14.1908 167.797 14.1524 167.98 14.1332L171.657 13.7012C171.878 13.7012 171.983 13.8452 171.983 14.1332C171.983 14.5653 171.954 15.1605 171.897 15.8998C171.839 16.7639 171.82 17.3496 171.82 17.6664C171.734 20.7292 171.695 23.139 171.695 24.9152C171.695 25.1841 171.762 25.3185 171.897 25.3185C171.926 25.3185 172.271 25.0784 172.934 24.608C173.721 24.0511 174.47 23.6191 175.19 23.283C176.265 22.8126 177.293 22.5726 178.301 22.5726C180.038 22.5726 181.479 23.0238 182.65 23.9359C183.908 24.9056 184.541 26.2498 184.541 27.9396H184.532L184.522 27.882Z" fill="#292929"/>
<path d="M206.441 31.578C206.441 32.9509 206 33.7286 205.116 33.911C204.972 33.9398 203.57 34.0839 200.911 34.3527C199.308 34.5255 196.927 34.7367 193.758 34.9768C193.95 35.8601 194.517 36.5321 195.486 36.993C196.274 37.377 197.167 37.5594 198.165 37.5594C199.375 37.5594 200.585 37.233 201.804 36.5897C202.322 36.2633 202.831 35.9369 203.35 35.62C203.628 35.7544 204.108 36.4457 204.78 37.6939C205.452 38.942 205.788 39.7293 205.788 40.0749C205.788 40.1709 205.692 40.3245 205.481 40.5454C203.83 42.3216 201.266 43.2049 197.781 43.2049C194.555 43.2049 191.963 42.264 189.985 40.3821C187.95 38.4715 186.941 35.9177 186.941 32.7205C186.941 29.5234 187.844 27.0559 189.668 25.0589C191.531 23.0042 194.008 21.9673 197.099 21.9673C199.701 21.9673 201.909 22.9178 203.724 24.8092C205.539 26.7102 206.451 28.9569 206.451 31.5684L206.441 31.578ZM199.336 30.3394C199.336 29.4945 199.039 28.7649 198.443 28.1216C197.848 27.4879 197.138 27.1615 196.312 27.1615C195.486 27.1615 194.757 27.5263 194.2 28.2368C193.681 28.8993 193.432 29.677 193.432 30.5699C193.432 30.9347 193.624 31.1171 193.998 31.1171C194.997 31.1171 196.562 30.9635 198.674 30.6467C199.116 30.5795 199.346 30.4739 199.346 30.3202L199.336 30.3394Z" fill="#292929"/>
<path d="M178.053 77.2596C178.053 77.9508 177.919 79.2278 177.64 81.0904C177.352 83.1066 177.093 84.3163 176.863 84.7004C176.671 85.0076 176.402 85.1612 176.066 85.1612C175.922 85.1612 175.682 85.1324 175.336 85.0844C174.155 84.9212 170.708 84.8444 165.005 84.8444C163.757 84.8444 161.914 84.8444 159.456 84.8252C156.998 84.806 155.155 84.7964 153.926 84.7964C153.398 84.7964 153.129 84.5564 153.129 84.0955C153.129 82.2809 153.235 79.5638 153.427 75.9346C153.628 72.3054 153.724 69.5883 153.724 67.7737C153.724 65.9591 153.628 62.4931 153.436 57.4718C153.388 56.1756 153.302 54.2458 153.167 51.6727L153.148 51.3367C153.11 50.9623 153.321 50.7798 153.753 50.7798C154.953 50.7798 156.749 50.8086 159.149 50.8758C161.549 50.9431 163.344 50.9719 164.545 50.9719C165.745 50.9719 167.502 50.9431 169.873 50.8758C172.254 50.8086 174.03 50.7798 175.211 50.7798C176.056 50.7798 176.536 51.0967 176.661 51.7207C176.748 52.0952 176.872 53.2185 177.036 55.1003C177.208 56.9821 177.285 58.1246 177.285 58.5279C177.285 58.8735 177.122 59.0367 176.805 59.0367C176.709 59.0367 176.536 59.0367 176.296 59.0079C171.995 58.6527 168.135 58.4799 164.708 58.4799C163.853 58.4799 163.325 58.6815 163.133 59.0848C163.056 59.2768 163.018 59.9008 163.018 60.9474C163.018 61.9939 163.181 62.7716 163.498 63.1268C163.776 63.434 164.295 63.5876 165.073 63.5876C165.236 63.5876 165.543 63.5781 166.014 63.5492C166.484 63.5204 166.868 63.5108 167.175 63.5108C169.211 63.5108 171.275 63.4532 173.358 63.338C173.541 63.3188 173.982 63.2804 174.693 63.2132C175.24 63.146 175.682 63.1172 175.999 63.1172C176.383 63.1172 176.584 63.2996 176.584 63.6741C176.584 63.338 176.44 64.567 176.152 67.3801C176.018 68.6762 175.96 69.9628 175.96 71.2589C175.96 71.5853 175.73 71.739 175.259 71.739L173.08 71.4989C172.158 71.4029 170.056 71.3549 166.772 71.3549H164.199C163.536 71.3549 163.143 71.5181 163.037 71.835C163.018 71.9118 163.018 72.4206 163.018 73.3423C163.018 74.5713 163.095 75.3585 163.258 75.7234C163.536 76.3379 164.564 76.7027 166.359 76.8083C166.33 76.8083 167.502 76.8083 169.902 76.8083C170.756 76.8083 172.033 76.7315 173.723 76.5779C175.413 76.4243 176.68 76.3475 177.516 76.3475C177.871 76.3475 178.044 76.6355 178.044 77.2212V77.2404L178.053 77.2596Z" fill="#292929"/>
<path d="M206.21 57.7601C206.21 58.0865 206.028 58.2401 205.682 58.2401C205.068 58.2401 202.639 58.1153 198.385 57.8753C198.289 61.9653 198.241 64.8168 198.241 66.4394C198.241 68.35 198.318 71.2111 198.472 75.0516C198.625 78.8824 198.702 81.7531 198.702 83.6541C198.702 83.9614 198.625 84.1534 198.491 84.2398C198.443 84.2686 198.213 84.3166 197.809 84.3646C196.84 84.499 195.419 84.5566 193.537 84.5566C191.453 84.5566 189.984 84.4894 189.149 84.3646C188.698 84.2782 188.467 84.0382 188.467 83.6157C188.467 81.7051 188.544 78.844 188.707 75.0324C188.871 71.2208 188.947 68.3596 188.947 66.449C188.947 65.1913 188.88 62.3782 188.755 58.0097C185.52 58.3361 182.947 58.4897 181.027 58.4897C180.767 58.4897 180.643 58.4129 180.643 58.2497C180.643 58.0385 180.758 57.4144 180.979 56.3871C181.238 55.2542 181.382 54.5725 181.411 54.3229C181.459 53.5644 181.516 52.8059 181.583 52.0378C181.699 50.8281 181.891 50.2232 182.169 50.2232C182.198 50.2232 182.313 50.2232 182.505 50.252C185.126 50.5881 188.996 50.7609 194.122 50.7609C195.572 50.7609 198.261 50.6073 202.168 50.3C204.271 50.1368 205.327 50.06 205.346 50.06C205.673 50.06 205.855 50.0792 205.903 50.1176C205.951 50.156 205.989 50.3192 205.999 50.5881C205.999 51.0201 205.989 51.625 205.951 52.4027C205.913 53.2572 205.903 53.862 205.903 54.2173C205.903 54.6205 205.951 55.2158 206.057 56.0031C206.162 56.7904 206.21 57.376 206.21 57.7601Z" fill="#292929"/>
<path d="M39.8051 67.0352C39.8051 71.8933 38.5281 75.8297 35.9838 78.8349C33.2571 82.0224 29.4935 83.6258 24.693 83.6258C23.8865 83.6258 22.6768 83.5778 21.0638 83.4914C19.4508 83.405 18.2411 83.357 17.4346 83.357C16.5705 83.357 16.1384 83.7314 16.1384 84.4707C16.1384 85.3924 16.2249 86.7654 16.4073 88.5992C16.5897 90.4234 16.6761 91.7867 16.6761 92.6988C16.6761 93.1597 16.4649 93.3901 16.0424 93.3901C14.8231 93.3901 12.9797 93.3613 10.5314 93.2845C8.08316 93.2173 6.24935 93.1789 5.02041 93.1789C4.43475 93.1789 4.14673 92.8908 4.14673 92.3052C4.14673 90.0777 4.18512 86.7269 4.25233 82.2625C4.31953 77.798 4.35794 74.4472 4.35794 72.2198C4.35794 65.9119 4.08912 59.2871 3.54186 52.3456L3.51306 51.9231C3.47465 51.5391 3.77229 51.3086 4.41556 51.2318C5.98053 51.0302 9.43691 50.9342 14.7751 50.9342C17.9242 50.9342 20.9486 50.9726 23.8385 51.0494C28.6006 51.1934 32.4314 52.6816 35.3406 55.5331C38.3169 58.4614 39.7955 62.3019 39.7955 67.0352H39.8051ZM27.7941 67.5152C27.7941 62.8395 25.5187 60.4969 20.9582 60.4969C17.7418 60.4969 16.0616 60.6793 15.8984 61.0345C15.7544 61.2937 15.6872 63.6172 15.6872 67.9953C15.6872 68.6194 15.7064 69.5315 15.764 70.7508C15.812 71.9605 15.8408 72.8822 15.8408 73.5063C15.8408 73.9095 17.6458 74.1112 21.2558 74.1112C25.6147 74.1112 27.7941 71.9125 27.7941 67.5152Z" fill="#292929"/>
<path d="M71.6036 93.6873C69.8754 93.6873 67.6287 93.6489 64.8636 93.572C61.2536 93.4856 59.007 93.4376 58.1237 93.4184L49.1179 93.3032C48.2154 93.3224 46.9192 93.284 45.2295 93.188C44.6438 93.092 44.3558 92.7752 44.3558 92.2567C44.3558 90.0677 44.3942 86.7841 44.4614 82.4252C44.5286 78.0567 44.567 74.7828 44.567 72.5937C44.567 70.2607 44.4998 66.7755 44.3558 62.1286C44.2117 57.4817 44.1445 53.9965 44.1445 51.6634C44.1445 51.2218 44.4422 51.0009 45.047 51.0009C45.6519 51.0009 46.5544 51.0298 47.7449 51.0874C48.9355 51.145 49.8284 51.1738 50.414 51.1738C51.0765 51.1738 52.0558 51.1354 53.3616 51.0682C54.6673 51.001 55.6466 50.9625 56.3091 50.9625C56.6067 50.9625 56.7507 51.1546 56.7315 51.5386L56.7027 51.9322C56.4627 55.7055 56.1939 61.3797 55.8866 68.9453L55.8578 76.895C55.8578 79.4681 55.8674 81.3403 55.8866 82.5308C55.9058 82.7709 55.925 83.0109 55.9442 83.2509C55.9634 83.4909 56.1171 83.6445 56.3955 83.7022H57.1828C58.9878 83.7022 61.6953 83.6062 65.2957 83.4141C68.8961 83.2221 71.6036 83.1261 73.4086 83.1261C73.9558 83.1261 74.2247 83.3565 74.2247 83.8174C74.2247 87.2546 73.975 90.2117 73.4758 92.6984C73.3798 93.2168 73.1685 93.5337 72.8421 93.6297C72.7461 93.6681 72.3332 93.6873 71.6036 93.6873Z" fill="#292929"/>
<path d="M145.534 50.9244C144.324 50.9244 142.51 50.9724 140.08 51.0684C137.651 51.1836 135.837 51.2316 134.627 51.2316C134.205 51.2316 133.993 51.5869 133.993 52.3358C133.993 54.4672 134.109 57.6547 134.339 61.8792C134.569 66.1133 134.694 69.2816 134.694 71.3939C134.694 72.9588 134.55 73.7365 134.291 73.7365C133.936 73.7365 133.513 73.4293 133.004 72.8052C130.969 70.1361 129.462 68.1007 128.454 66.7181L119.544 54.5056C118.814 54.0543 117.883 53.5743 116.875 53.7279C114.974 54.0255 112.708 53.5839 108.867 54.4096C108.666 54.4576 108.464 54.496 108.272 54.544C106.89 54.8992 105.939 56.1474 105.977 57.5779C106.026 58.9605 106.083 60.5063 106.141 62.196C106.333 66.8046 106.438 70.2513 106.438 72.5556C106.438 74.8598 106.342 78.0186 106.131 82.3967C105.92 86.794 105.805 90.0583 105.805 92.2186C105.805 92.833 106.102 93.1403 106.678 93.1403H117.086C117.643 93.1403 117.902 92.7946 117.902 92.1033C117.902 89.7607 117.835 86.2755 117.7 81.6094C117.566 76.9529 117.508 73.4581 117.508 71.1346C117.508 70.837 117.595 70.6162 117.758 70.4722C117.988 70.597 118.132 70.7218 118.209 70.8466C121.042 74.4758 123.154 77.2217 124.536 79.0939C129.596 85.7762 132.851 90.0871 134.281 92.0457C134.79 92.7082 135.222 93.0346 135.587 93.0346C136.106 93.0346 136.893 93.0635 137.949 93.1499C138.986 93.2267 139.773 93.2747 140.292 93.2747C140.781 93.2747 141.501 93.2651 142.471 93.2075C143.45 93.1691 144.18 93.1403 144.651 93.1403C145.236 93.1403 145.524 92.881 145.524 92.3242V72.4788C145.524 70.1649 145.62 66.7373 145.822 62.148C146.004 57.5587 146.1 54.112 146.1 51.8173C146.1 51.2028 145.908 50.8956 145.534 50.8956V50.9244Z" fill="#292929"/>
<path d="M100.831 90.9893C97.9702 84.5662 87.5626 57.5488 85.2488 51.5097C84.9703 50.7993 84.2791 50.348 83.4918 50.3672C79.7474 50.4536 76.9823 50.1848 75.4269 49.9736C74.582 49.8584 73.7659 50.348 73.4779 51.1449L63.0511 79.7849C62.8399 80.4185 63.3103 81.0522 63.9632 81.0426L72.8634 80.6682C73.5259 80.6298 74.1211 80.2265 74.4092 79.6408C74.6876 79.1032 75.062 78.5079 75.5133 78.2583C76.195 77.8839 80.3234 78.1143 82.3013 78.2583C82.9541 78.2967 83.5206 78.6807 83.799 79.2856C84.7399 81.321 86.8522 86.1984 87.2842 89.8756C87.8219 94.6377 89.4444 93.2263 95.6755 93.6776C97.6053 93.8216 98.9015 93.6968 99.7272 93.4664C100.783 93.1591 101.302 91.9686 100.851 90.9797L100.831 90.9893ZM82.09 74.4179H77.6447C76.7998 74.4179 76.147 73.6402 76.291 72.7953L78.3072 61.6197C78.4032 61.1108 79.1233 61.082 79.2481 61.5813L82.4165 73.957C82.4837 74.1874 82.3012 74.4083 82.0708 74.4083L82.09 74.4179Z" fill="#292929"/>
</svg>
